%TF.GenerationSoftware,Altium Limited,Altium Designer,25.1.2 (22)*%
G04 Layer_Color=8421504*
%FSLAX26Y26*%
%MOIN*%
%TF.SameCoordinates,EF3D0058-BFB1-4D13-B08A-83EF3F8D9CFD*%
%TF.FilePolarity,Positive*%
%TF.FileFunction,Paste,Top*%
%TF.Part,Single*%
G01*
G75*
%TA.AperFunction,SMDPad,CuDef*%
%ADD10R,0.196850X0.196850*%
%ADD11R,0.034000X0.108000*%
%ADD13R,0.022000X0.057500*%
%ADD14R,0.085000X0.108000*%
%ADD15R,0.114000X0.213000*%
%ADD16R,0.019685X0.019685*%
%ADD17R,0.019685X0.019685*%
G36*
X70937Y543313D02*
Y500687D01*
X131063D01*
Y543313D01*
X70937D01*
D02*
G37*
G36*
Y593813D02*
Y551187D01*
X131063D01*
Y593813D01*
X70937D01*
D02*
G37*
G36*
X138937Y543313D02*
Y500687D01*
X199063D01*
Y543313D01*
X138937D01*
D02*
G37*
G36*
Y593813D02*
Y551187D01*
X199063D01*
Y593813D01*
X138937D01*
D02*
G37*
D10*
X110000Y915000D02*
D03*
X675000D02*
D03*
D11*
X729000Y730000D02*
D03*
X581000D02*
D03*
Y600000D02*
D03*
X729000D02*
D03*
D13*
X60000Y654500D02*
D03*
X110000D02*
D03*
X160000D02*
D03*
X210000D02*
D03*
Y440000D02*
D03*
X160000D02*
D03*
X110000D02*
D03*
X60000D02*
D03*
D14*
X63000Y270000D02*
D03*
X195000D02*
D03*
D15*
X324000D02*
D03*
X706000D02*
D03*
D16*
X265000Y689000D02*
D03*
Y721000D02*
D03*
Y625000D02*
D03*
Y657000D02*
D03*
D17*
X192000Y745000D02*
D03*
X160000D02*
D03*
X161000Y370000D02*
D03*
X129000D02*
D03*
X92000Y710000D02*
D03*
X60000D02*
D03*
X160000D02*
D03*
X192000D02*
D03*
%TF.MD5,a42fc3e60fca7e52075a66316b448f8a*%
M02*
