%TF.GenerationSoftware,Altium Limited,Altium Designer,25.1.2 (22)*%
G04 Layer_Color=128*
%FSLAX26Y26*%
%MOIN*%
%TF.SameCoordinates,F913E735-1322-4852-AD95-6D51C673810E*%
%TF.FilePolarity,Positive*%
%TF.FileFunction,Paste,Bot*%
%TF.Part,Single*%
G01*
G75*
%TA.AperFunction,SMDPad,CuDef*%
%ADD10R,0.196850X0.196850*%
%ADD11R,0.034000X0.108000*%
%ADD16R,0.019685X0.019685*%
%ADD17R,0.019685X0.019685*%
%TA.AperFunction,ConnectorPad*%
%ADD21R,0.067000X0.024000*%
%TA.AperFunction,SMDPad,CuDef*%
%ADD22R,0.123000X0.133000*%
%ADD23R,0.023622X0.039370*%
D10*
X110000Y915000D02*
D03*
X675000D02*
D03*
D11*
X258000Y590000D02*
D03*
X110000D02*
D03*
X258000Y460000D02*
D03*
X110000D02*
D03*
D16*
X500000Y549000D02*
D03*
Y581000D02*
D03*
X465000Y549000D02*
D03*
Y581000D02*
D03*
D17*
X497000Y635000D02*
D03*
X465000D02*
D03*
Y670000D02*
D03*
X497000D02*
D03*
Y700000D02*
D03*
X465000D02*
D03*
D21*
X591154Y446969D02*
D03*
Y496181D02*
D03*
Y545394D02*
D03*
Y594606D02*
D03*
Y643819D02*
D03*
Y693032D02*
D03*
D22*
X459500Y920000D02*
D03*
X310500D02*
D03*
D23*
X414803Y601732D02*
D03*
X377401D02*
D03*
X340000D02*
D03*
Y710000D02*
D03*
X414803D02*
D03*
%TF.MD5,d178d5b95f18c15ae8849437066331e6*%
M02*
