%TF.GenerationSoftware,Altium Limited,Altium Designer,25.1.2 (22)*%
G04 Layer_Color=16711935*
%FSLAX26Y26*%
%MOIN*%
%TF.SameCoordinates,E56DD44E-5F37-4ECE-9A2F-9A690C635C7A*%
%TF.FilePolarity,Negative*%
%TF.FileFunction,Soldermask,Bot*%
%TF.Part,Single*%
G01*
G75*
%TA.AperFunction,SMDPad,CuDef*%
%ADD11R,0.034000X0.108000*%
%TA.AperFunction,ConnectorPad*%
%ADD21R,0.067000X0.024000*%
%TA.AperFunction,SMDPad,CuDef*%
%ADD22R,0.123000X0.133000*%
%ADD27R,0.128000X0.108000*%
%ADD28R,0.023685X0.023685*%
%ADD29R,0.023685X0.023685*%
%TA.AperFunction,ConnectorPad*%
%ADD30R,0.116000X0.043000*%
%TA.AperFunction,SMDPad,CuDef*%
%ADD31R,0.027622X0.043370*%
D11*
X258000Y590000D02*
D03*
X110000D02*
D03*
X258000Y460000D02*
D03*
X110000D02*
D03*
D21*
X591154Y446969D02*
D03*
Y496181D02*
D03*
Y545394D02*
D03*
Y594606D02*
D03*
Y643819D02*
D03*
Y693032D02*
D03*
D22*
X450000Y860000D02*
D03*
X301000D02*
D03*
D27*
X80000Y875000D02*
D03*
X705000D02*
D03*
D28*
X500000Y549000D02*
D03*
Y581000D02*
D03*
X465000Y549000D02*
D03*
Y581000D02*
D03*
D29*
X497000Y635000D02*
D03*
X465000D02*
D03*
Y670000D02*
D03*
X497000D02*
D03*
Y700000D02*
D03*
X465000D02*
D03*
D30*
X717138Y374134D02*
D03*
Y765866D02*
D03*
D31*
X414803Y601732D02*
D03*
X377401D02*
D03*
X340000D02*
D03*
Y710000D02*
D03*
X414803D02*
D03*
%TF.MD5,2623cd17a024cd3a1f577658449ce114*%
M02*
