%TF.GenerationSoftware,Altium Limited,Altium Designer,25.1.2 (22)*%
G04 Layer_Color=32896*
%FSLAX26Y26*%
%MOIN*%
%TF.SameCoordinates,EF3D0058-BFB1-4D13-B08A-83EF3F8D9CFD*%
%TF.FilePolarity,Positive*%
%TF.FileFunction,Legend,Bot*%
%TF.Part,Single*%
G01*
G75*
%TA.AperFunction,NonConductor*%
%ADD24C,0.006000*%
%ADD25C,0.001000*%
%ADD26C,0.007874*%
G36*
X550000Y533000D02*
X521517D01*
Y557000D01*
X550000D01*
Y533000D01*
D02*
G37*
G36*
Y508000D02*
Y435000D01*
X520747D01*
Y508000D01*
X550000D01*
D02*
G37*
G36*
Y705000D02*
Y632000D01*
X521132D01*
Y705000D01*
X550000D01*
D02*
G37*
G36*
X135000Y775000D02*
X51638D01*
Y804253D01*
X135000D01*
Y775000D01*
D02*
G37*
G36*
X550000Y580908D02*
X521517D01*
Y608000D01*
X550000D01*
Y580908D01*
D02*
G37*
G36*
X620000Y100000D02*
X193663D01*
Y134906D01*
X620000D01*
Y100000D01*
D02*
G37*
G36*
X563483Y885000D02*
X535000D01*
Y934884D01*
X563483D01*
Y885000D01*
D02*
G37*
G36*
X555158Y334812D02*
X555543Y334191D01*
X555957Y333599D01*
X556372Y333125D01*
X556727Y332740D01*
X557052Y332444D01*
X557171Y332326D01*
X557260Y332237D01*
X557319Y332208D01*
X557348Y332178D01*
X558000Y331704D01*
X558621Y331290D01*
X559184Y330964D01*
X559687Y330728D01*
X560101Y330550D01*
X560397Y330402D01*
X560516Y330372D01*
X560604Y330343D01*
X560634Y330313D01*
X560664D01*
Y326761D01*
X559598Y327176D01*
X558651Y327620D01*
X558207Y327856D01*
X557792Y328123D01*
X557408Y328360D01*
X557052Y328596D01*
X556727Y328833D01*
X556431Y329040D01*
X556194Y329218D01*
X555987Y329396D01*
X555809Y329544D01*
X555691Y329632D01*
X555632Y329692D01*
X555602Y329721D01*
Y314892D01*
X551665D01*
Y335493D01*
X554862D01*
X555158Y334812D01*
D02*
G37*
G36*
X569366Y322084D02*
Y321640D01*
X569396Y321226D01*
X569425Y320871D01*
X569455Y320516D01*
X569514Y320220D01*
X569544Y319953D01*
X569603Y319716D01*
X569662Y319509D01*
X569780Y319184D01*
X569869Y318976D01*
X569928Y318828D01*
X569958Y318799D01*
X570195Y318532D01*
X570491Y318355D01*
X570816Y318207D01*
X571142Y318118D01*
X571408Y318059D01*
X571645Y318029D01*
X571882D01*
X572356Y318088D01*
X572770Y318207D01*
X573125Y318384D01*
X573392Y318592D01*
X573628Y318769D01*
X573776Y318947D01*
X573865Y319065D01*
X573895Y319124D01*
X574043Y319450D01*
X574161Y319805D01*
X574250Y320220D01*
X574309Y320634D01*
X574368Y321019D01*
Y321315D01*
X574398Y321433D01*
Y321522D01*
Y321581D01*
Y321611D01*
X578335Y321167D01*
X578305Y320575D01*
X578276Y320012D01*
X578187Y319480D01*
X578068Y319006D01*
X577950Y318562D01*
X577832Y318148D01*
X577684Y317792D01*
X577506Y317437D01*
X577358Y317171D01*
X577210Y316904D01*
X577092Y316697D01*
X576973Y316520D01*
X576855Y316372D01*
X576766Y316283D01*
X576736Y316224D01*
X576707Y316194D01*
X576381Y315898D01*
X576026Y315632D01*
X575671Y315424D01*
X575286Y315217D01*
X574901Y315069D01*
X574516Y314921D01*
X573747Y314714D01*
X573392Y314655D01*
X573066Y314596D01*
X572800Y314566D01*
X572533Y314536D01*
X572326Y314507D01*
X572030D01*
X571112Y314566D01*
X570284Y314684D01*
X569573Y314832D01*
X569277Y314951D01*
X568981Y315040D01*
X568744Y315128D01*
X568508Y315247D01*
X568330Y315336D01*
X568182Y315395D01*
X568034Y315484D01*
X567945Y315513D01*
X567916Y315572D01*
X567886D01*
X567324Y316016D01*
X566880Y316490D01*
X566495Y316964D01*
X566199Y317408D01*
X565962Y317822D01*
X565814Y318148D01*
X565755Y318266D01*
X565725Y318355D01*
X565696Y318414D01*
Y318444D01*
X565548Y319006D01*
X565429Y319657D01*
X565340Y320308D01*
X565281Y320930D01*
X565252Y321492D01*
X565222Y321759D01*
Y321966D01*
Y322144D01*
Y322262D01*
Y322351D01*
Y322380D01*
Y335375D01*
X569366D01*
Y322084D01*
D02*
G37*
G36*
X288560Y724812D02*
X288944Y724191D01*
X289359Y723599D01*
X289773Y723125D01*
X290128Y722740D01*
X290454Y722444D01*
X290572Y722326D01*
X290661Y722237D01*
X290720Y722208D01*
X290750Y722178D01*
X291401Y721704D01*
X292023Y721290D01*
X292585Y720964D01*
X293088Y720728D01*
X293503Y720550D01*
X293799Y720402D01*
X293917Y720372D01*
X294006Y720343D01*
X294036Y720313D01*
X294065D01*
Y716761D01*
X293000Y717176D01*
X292052Y717620D01*
X291608Y717856D01*
X291194Y718123D01*
X290809Y718360D01*
X290454Y718596D01*
X290128Y718833D01*
X289832Y719040D01*
X289596Y719218D01*
X289388Y719396D01*
X289211Y719544D01*
X289092Y719632D01*
X289033Y719692D01*
X289004Y719721D01*
Y704892D01*
X285067D01*
Y725493D01*
X288264D01*
X288560Y724812D01*
D02*
G37*
G36*
X314933Y714423D02*
Y713801D01*
X314904Y713209D01*
Y712647D01*
X314874Y712144D01*
X314844Y711670D01*
X314815Y711256D01*
X314785Y710871D01*
X314726Y710516D01*
X314696Y710220D01*
X314667Y709953D01*
X314637Y709716D01*
X314608Y709539D01*
X314578Y709391D01*
Y709302D01*
X314548Y709243D01*
Y709213D01*
X314400Y708769D01*
X314252Y708355D01*
X314045Y707970D01*
X313868Y707644D01*
X313690Y707348D01*
X313542Y707112D01*
X313424Y706993D01*
X313394Y706934D01*
X313039Y706549D01*
X312654Y706194D01*
X312240Y705898D01*
X311855Y705632D01*
X311529Y705424D01*
X311233Y705276D01*
X311056Y705188D01*
X311026Y705158D01*
X310996D01*
X310700Y705040D01*
X310375Y704951D01*
X309635Y704773D01*
X308895Y704655D01*
X308184Y704596D01*
X307859Y704566D01*
X307533Y704536D01*
X307267D01*
X307000Y704507D01*
X306527D01*
X305668Y704536D01*
X304899Y704596D01*
X304218Y704714D01*
X303656Y704832D01*
X303419Y704862D01*
X303182Y704921D01*
X303004Y704980D01*
X302856Y705040D01*
X302738Y705069D01*
X302649Y705099D01*
X302620Y705128D01*
X302590D01*
X302057Y705365D01*
X301584Y705661D01*
X301169Y705928D01*
X300814Y706194D01*
X300548Y706431D01*
X300340Y706608D01*
X300222Y706727D01*
X300192Y706786D01*
X299867Y707200D01*
X299600Y707644D01*
X299393Y708059D01*
X299216Y708473D01*
X299097Y708828D01*
X299008Y709124D01*
X298979Y709213D01*
Y709302D01*
X298949Y709332D01*
Y709361D01*
X298890Y709687D01*
X298831Y710042D01*
X298772Y710427D01*
X298742Y710812D01*
X298683Y711700D01*
X298624Y712558D01*
Y712943D01*
Y713328D01*
X298594Y713683D01*
Y713979D01*
Y714216D01*
Y714423D01*
Y714541D01*
Y714571D01*
Y725375D01*
X302738D01*
Y714008D01*
Y713564D01*
Y713150D01*
X302768Y712765D01*
Y712410D01*
X302797Y712114D01*
Y711818D01*
X302827Y711552D01*
Y711315D01*
X302886Y710960D01*
X302916Y710693D01*
X302945Y710545D01*
Y710486D01*
X303034Y710101D01*
X303182Y709776D01*
X303360Y709480D01*
X303537Y709213D01*
X303715Y709006D01*
X303863Y708858D01*
X303981Y708769D01*
X304011Y708740D01*
X304366Y708503D01*
X304810Y708325D01*
X305224Y708207D01*
X305668Y708118D01*
X306053Y708059D01*
X306349Y708029D01*
X306645D01*
X307267Y708059D01*
X307800Y708148D01*
X308273Y708266D01*
X308688Y708414D01*
X308984Y708532D01*
X309220Y708651D01*
X309339Y708740D01*
X309398Y708769D01*
X309724Y709065D01*
X309990Y709420D01*
X310227Y709746D01*
X310375Y710072D01*
X310493Y710368D01*
X310582Y710604D01*
X310641Y710752D01*
Y710812D01*
X310671Y710989D01*
X310700Y711167D01*
Y711404D01*
X310730Y711670D01*
X310760Y712232D01*
Y712824D01*
X310789Y713357D01*
Y713594D01*
Y713831D01*
Y714008D01*
Y714127D01*
Y714216D01*
Y714245D01*
Y725375D01*
X314933D01*
Y714423D01*
D02*
G37*
G36*
X471916Y510714D02*
X467772D01*
Y519268D01*
X466440D01*
X466026Y519239D01*
X465671Y519209D01*
X465375Y519150D01*
X465138Y519120D01*
X464990Y519061D01*
X464901Y519032D01*
X464872D01*
X464635Y518913D01*
X464398Y518795D01*
X464191Y518647D01*
X463984Y518528D01*
X463836Y518380D01*
X463717Y518262D01*
X463658Y518203D01*
X463628Y518173D01*
X463510Y518025D01*
X463362Y517877D01*
X463036Y517433D01*
X462681Y516960D01*
X462296Y516427D01*
X461971Y515953D01*
X461823Y515716D01*
X461704Y515539D01*
X461586Y515391D01*
X461497Y515272D01*
X461468Y515184D01*
X461438Y515154D01*
X458478Y510714D01*
X453505D01*
X456021Y514710D01*
X456288Y515124D01*
X456554Y515539D01*
X456791Y515894D01*
X457028Y516220D01*
X457235Y516516D01*
X457412Y516812D01*
X457768Y517256D01*
X458034Y517611D01*
X458212Y517848D01*
X458360Y517996D01*
X458389Y518025D01*
X458715Y518380D01*
X459100Y518706D01*
X459455Y518972D01*
X459810Y519239D01*
X460106Y519446D01*
X460343Y519594D01*
X460520Y519712D01*
X460550Y519742D01*
X460580D01*
X460076Y519831D01*
X459632Y519949D01*
X459218Y520068D01*
X458804Y520216D01*
X458448Y520364D01*
X458123Y520512D01*
X457797Y520660D01*
X457531Y520837D01*
X457294Y520985D01*
X457087Y521133D01*
X456909Y521281D01*
X456791Y521400D01*
X456672Y521488D01*
X456584Y521577D01*
X456554Y521607D01*
X456524Y521636D01*
X456288Y521932D01*
X456080Y522228D01*
X455725Y522880D01*
X455488Y523501D01*
X455340Y524123D01*
X455222Y524656D01*
X455192Y524863D01*
Y525070D01*
X455163Y525218D01*
Y525366D01*
Y525425D01*
Y525455D01*
X455192Y526106D01*
X455311Y526728D01*
X455459Y527260D01*
X455607Y527734D01*
X455784Y528119D01*
X455932Y528415D01*
X455992Y528504D01*
X456051Y528592D01*
X456080Y528622D01*
Y528652D01*
X456436Y529155D01*
X456820Y529569D01*
X457205Y529895D01*
X457590Y530191D01*
X457945Y530368D01*
X458212Y530516D01*
X458389Y530605D01*
X458419Y530635D01*
X458448D01*
X458744Y530724D01*
X459070Y530812D01*
X459810Y530960D01*
X460609Y531049D01*
X461379Y531138D01*
X461764D01*
X462089Y531168D01*
X462415D01*
X462681Y531197D01*
X471916D01*
Y510714D01*
D02*
G37*
G36*
X452824Y518232D02*
Y514828D01*
X444418D01*
Y510714D01*
X440629D01*
Y514828D01*
X438084D01*
Y518262D01*
X440629D01*
Y531286D01*
X443944D01*
X452824Y518232D01*
D02*
G37*
G36*
X446016Y745464D02*
X446579Y745404D01*
X447112Y745286D01*
X447556Y745168D01*
X447911Y745049D01*
X448207Y744931D01*
X448384Y744872D01*
X448414Y744842D01*
X448444D01*
X448917Y744576D01*
X449361Y744280D01*
X449716Y743984D01*
X450012Y743717D01*
X450249Y743451D01*
X450427Y743244D01*
X450545Y743125D01*
X450575Y743066D01*
X450841Y742622D01*
X451078Y742148D01*
X451256Y741645D01*
X451433Y741172D01*
X451552Y740728D01*
X451640Y740402D01*
X451670Y740254D01*
Y740165D01*
X451700Y740106D01*
Y740076D01*
X448088Y739484D01*
X448000Y739958D01*
X447881Y740372D01*
X447763Y740728D01*
X447615Y740994D01*
X447467Y741231D01*
X447348Y741408D01*
X447260Y741497D01*
X447230Y741527D01*
X446964Y741764D01*
X446668Y741941D01*
X446372Y742060D01*
X446105Y742148D01*
X445868Y742208D01*
X445691Y742237D01*
X445513D01*
X445158Y742208D01*
X444803Y742148D01*
X444536Y742030D01*
X444300Y741941D01*
X444092Y741823D01*
X443974Y741704D01*
X443885Y741645D01*
X443856Y741616D01*
X443648Y741379D01*
X443500Y741083D01*
X443382Y740816D01*
X443323Y740550D01*
X443264Y740313D01*
X443234Y740136D01*
Y740017D01*
Y739958D01*
X443264Y739514D01*
X443352Y739129D01*
X443500Y738804D01*
X443648Y738537D01*
X443826Y738300D01*
X443944Y738152D01*
X444063Y738034D01*
X444092Y738004D01*
X444448Y737768D01*
X444832Y737590D01*
X445247Y737472D01*
X445632Y737383D01*
X445987Y737353D01*
X446283Y737324D01*
X446549D01*
X446964Y734156D01*
X446579Y734245D01*
X446253Y734334D01*
X445928Y734393D01*
X445661Y734423D01*
X445454Y734452D01*
X445158D01*
X444744Y734423D01*
X444388Y734304D01*
X444063Y734186D01*
X443767Y734008D01*
X443560Y733860D01*
X443382Y733712D01*
X443264Y733594D01*
X443234Y733564D01*
X442968Y733209D01*
X442760Y732824D01*
X442612Y732440D01*
X442494Y732055D01*
X442435Y731700D01*
X442405Y731433D01*
Y731256D01*
Y731226D01*
Y731196D01*
X442435Y730634D01*
X442524Y730131D01*
X442672Y729687D01*
X442820Y729332D01*
X442997Y729065D01*
X443116Y728858D01*
X443234Y728710D01*
X443264Y728680D01*
X443589Y728384D01*
X443944Y728148D01*
X444270Y728000D01*
X444596Y727881D01*
X444892Y727822D01*
X445099Y727792D01*
X445247Y727763D01*
X445306D01*
X445720Y727792D01*
X446076Y727881D01*
X446401Y728000D01*
X446697Y728148D01*
X446904Y728266D01*
X447082Y728384D01*
X447200Y728473D01*
X447230Y728503D01*
X447496Y728828D01*
X447733Y729184D01*
X447881Y729568D01*
X448029Y729924D01*
X448118Y730249D01*
X448177Y730516D01*
X448207Y730693D01*
Y730723D01*
Y730752D01*
X451996Y730279D01*
X451936Y729805D01*
X451818Y729361D01*
X451552Y728532D01*
X451226Y727822D01*
X451019Y727526D01*
X450841Y727230D01*
X450664Y726964D01*
X450486Y726756D01*
X450338Y726549D01*
X450190Y726401D01*
X450072Y726283D01*
X449983Y726194D01*
X449924Y726135D01*
X449894Y726105D01*
X449539Y725839D01*
X449154Y725572D01*
X448799Y725365D01*
X448384Y725188D01*
X447615Y724892D01*
X446904Y724714D01*
X446549Y724655D01*
X446253Y724596D01*
X445987Y724566D01*
X445750Y724536D01*
X445543Y724507D01*
X445276D01*
X444744Y724536D01*
X444211Y724596D01*
X443737Y724684D01*
X443264Y724803D01*
X442849Y724951D01*
X442435Y725099D01*
X442050Y725276D01*
X441724Y725454D01*
X441428Y725632D01*
X441132Y725809D01*
X440925Y725957D01*
X440718Y726105D01*
X440570Y726224D01*
X440452Y726312D01*
X440392Y726372D01*
X440363Y726401D01*
X440008Y726756D01*
X439712Y727141D01*
X439445Y727526D01*
X439208Y727911D01*
X439031Y728325D01*
X438853Y728710D01*
X438616Y729420D01*
X438557Y729746D01*
X438498Y730072D01*
X438439Y730338D01*
X438409Y730575D01*
X438380Y730752D01*
Y730900D01*
Y730989D01*
Y731019D01*
X438439Y731700D01*
X438557Y732292D01*
X438705Y732854D01*
X438912Y733298D01*
X439120Y733683D01*
X439268Y733949D01*
X439386Y734127D01*
X439445Y734186D01*
X439860Y734630D01*
X440333Y735015D01*
X440807Y735311D01*
X441251Y735548D01*
X441636Y735725D01*
X441961Y735814D01*
X442080Y735873D01*
X442168D01*
X442228Y735903D01*
X442257D01*
X441724Y736228D01*
X441280Y736554D01*
X440896Y736909D01*
X440540Y737264D01*
X440244Y737620D01*
X440008Y737975D01*
X439830Y738330D01*
X439652Y738656D01*
X439534Y738981D01*
X439445Y739277D01*
X439386Y739544D01*
X439356Y739780D01*
X439327Y739958D01*
X439297Y740106D01*
Y740195D01*
Y740224D01*
X439327Y740580D01*
X439356Y740905D01*
X439534Y741556D01*
X439741Y742148D01*
X440008Y742652D01*
X440274Y743066D01*
X440511Y743362D01*
X440600Y743480D01*
X440688Y743569D01*
X440718Y743599D01*
X440748Y743628D01*
X441073Y743954D01*
X441458Y744250D01*
X441813Y744487D01*
X442198Y744694D01*
X442612Y744901D01*
X442997Y745049D01*
X443737Y745256D01*
X444063Y745345D01*
X444388Y745404D01*
X444655Y745434D01*
X444921Y745464D01*
X445128Y745493D01*
X445395D01*
X446016Y745464D01*
D02*
G37*
G36*
X471620Y724892D02*
X467476D01*
Y733446D01*
X466144D01*
X465730Y733416D01*
X465375Y733387D01*
X465079Y733328D01*
X464842Y733298D01*
X464694Y733239D01*
X464605Y733209D01*
X464576D01*
X464339Y733091D01*
X464102Y732972D01*
X463895Y732824D01*
X463688Y732706D01*
X463540Y732558D01*
X463421Y732440D01*
X463362Y732380D01*
X463332Y732351D01*
X463214Y732203D01*
X463066Y732055D01*
X462740Y731611D01*
X462385Y731137D01*
X462000Y730604D01*
X461675Y730131D01*
X461527Y729894D01*
X461408Y729716D01*
X461290Y729568D01*
X461201Y729450D01*
X461172Y729361D01*
X461142Y729332D01*
X458182Y724892D01*
X453209D01*
X455725Y728888D01*
X455992Y729302D01*
X456258Y729716D01*
X456495Y730072D01*
X456732Y730397D01*
X456939Y730693D01*
X457116Y730989D01*
X457472Y731433D01*
X457738Y731788D01*
X457916Y732025D01*
X458064Y732173D01*
X458093Y732203D01*
X458419Y732558D01*
X458804Y732884D01*
X459159Y733150D01*
X459514Y733416D01*
X459810Y733624D01*
X460047Y733772D01*
X460224Y733890D01*
X460254Y733920D01*
X460284D01*
X459780Y734008D01*
X459336Y734127D01*
X458922Y734245D01*
X458508Y734393D01*
X458152Y734541D01*
X457827Y734689D01*
X457501Y734837D01*
X457235Y735015D01*
X456998Y735163D01*
X456791Y735311D01*
X456613Y735459D01*
X456495Y735577D01*
X456376Y735666D01*
X456288Y735755D01*
X456258Y735784D01*
X456228Y735814D01*
X455992Y736110D01*
X455784Y736406D01*
X455429Y737057D01*
X455192Y737679D01*
X455044Y738300D01*
X454926Y738833D01*
X454896Y739040D01*
Y739248D01*
X454867Y739396D01*
Y739544D01*
Y739603D01*
Y739632D01*
X454896Y740284D01*
X455015Y740905D01*
X455163Y741438D01*
X455311Y741912D01*
X455488Y742296D01*
X455636Y742592D01*
X455696Y742681D01*
X455755Y742770D01*
X455784Y742800D01*
Y742829D01*
X456140Y743332D01*
X456524Y743747D01*
X456909Y744072D01*
X457294Y744368D01*
X457649Y744546D01*
X457916Y744694D01*
X458093Y744783D01*
X458123Y744812D01*
X458152D01*
X458448Y744901D01*
X458774Y744990D01*
X459514Y745138D01*
X460313Y745227D01*
X461083Y745316D01*
X461468D01*
X461793Y745345D01*
X462119D01*
X462385Y745375D01*
X471620D01*
Y724892D01*
D02*
G37*
G36*
X445498Y775271D02*
X445972Y775242D01*
X446890Y775094D01*
X447659Y774857D01*
X448014Y774738D01*
X448340Y774590D01*
X448636Y774472D01*
X448873Y774324D01*
X449110Y774206D01*
X449287Y774117D01*
X449435Y773998D01*
X449524Y773939D01*
X449583Y773910D01*
X449613Y773880D01*
X449938Y773584D01*
X450234Y773288D01*
X450501Y772933D01*
X450738Y772548D01*
X451093Y771778D01*
X451389Y771038D01*
X451478Y770654D01*
X451566Y770328D01*
X451655Y770032D01*
X451685Y769766D01*
X451744Y769529D01*
Y769381D01*
X451774Y769262D01*
Y769233D01*
X447866Y768848D01*
X447807Y769440D01*
X447689Y769943D01*
X447570Y770387D01*
X447422Y770713D01*
X447304Y770979D01*
X447186Y771157D01*
X447097Y771275D01*
X447067Y771305D01*
X446771Y771542D01*
X446446Y771719D01*
X446120Y771867D01*
X445794Y771956D01*
X445528Y772015D01*
X445291Y772045D01*
X445084D01*
X444640Y772015D01*
X444255Y771926D01*
X443930Y771808D01*
X443634Y771690D01*
X443426Y771571D01*
X443249Y771453D01*
X443160Y771364D01*
X443130Y771334D01*
X442894Y771038D01*
X442716Y770713D01*
X442598Y770387D01*
X442509Y770062D01*
X442450Y769766D01*
X442420Y769499D01*
Y769351D01*
Y769322D01*
Y769292D01*
X442450Y768848D01*
X442538Y768434D01*
X442686Y768019D01*
X442834Y767664D01*
X442982Y767338D01*
X443130Y767102D01*
X443219Y766954D01*
X443249Y766894D01*
X443367Y766717D01*
X443545Y766510D01*
X443782Y766243D01*
X444018Y766006D01*
X444551Y765444D01*
X445084Y764882D01*
X445617Y764349D01*
X445854Y764112D01*
X446090Y763934D01*
X446268Y763757D01*
X446386Y763638D01*
X446475Y763550D01*
X446505Y763520D01*
X447097Y762958D01*
X447630Y762425D01*
X448133Y761922D01*
X448577Y761478D01*
X448991Y761034D01*
X449346Y760619D01*
X449672Y760264D01*
X449938Y759909D01*
X450175Y759613D01*
X450382Y759346D01*
X450560Y759139D01*
X450678Y758932D01*
X450797Y758814D01*
X450856Y758695D01*
X450915Y758636D01*
Y758606D01*
X451300Y757926D01*
X451596Y757215D01*
X451833Y756564D01*
X452010Y755972D01*
X452129Y755439D01*
X452158Y755232D01*
X452188Y755054D01*
X452218Y754906D01*
X452247Y754788D01*
Y754729D01*
Y754699D01*
X438483D01*
Y758340D01*
X446298D01*
X446061Y758725D01*
X445794Y759050D01*
X445676Y759198D01*
X445587Y759317D01*
X445528Y759376D01*
X445498Y759406D01*
X445380Y759524D01*
X445262Y759672D01*
X444906Y759998D01*
X444522Y760382D01*
X444137Y760767D01*
X443752Y761122D01*
X443426Y761418D01*
X443308Y761537D01*
X443219Y761626D01*
X443160Y761655D01*
X443130Y761685D01*
X442479Y762306D01*
X441946Y762810D01*
X441502Y763283D01*
X441147Y763638D01*
X440881Y763934D01*
X440703Y764142D01*
X440585Y764290D01*
X440555Y764319D01*
X440170Y764822D01*
X439845Y765296D01*
X439578Y765740D01*
X439371Y766125D01*
X439194Y766450D01*
X439075Y766717D01*
X439016Y766865D01*
X438986Y766924D01*
X438809Y767398D01*
X438690Y767871D01*
X438602Y768315D01*
X438542Y768730D01*
X438513Y769055D01*
X438483Y769322D01*
Y769499D01*
Y769558D01*
X438513Y770002D01*
X438572Y770446D01*
X438631Y770861D01*
X438750Y771246D01*
X439046Y771926D01*
X439342Y772518D01*
X439519Y772785D01*
X439667Y772992D01*
X439815Y773199D01*
X439963Y773347D01*
X440082Y773466D01*
X440141Y773584D01*
X440200Y773614D01*
X440230Y773643D01*
X440555Y773939D01*
X440940Y774206D01*
X441295Y774413D01*
X441710Y774590D01*
X442479Y774886D01*
X443249Y775094D01*
X443604Y775153D01*
X443930Y775212D01*
X444226Y775242D01*
X444492Y775271D01*
X444699Y775301D01*
X444995D01*
X445498Y775271D01*
D02*
G37*
G36*
X471517Y754699D02*
X467373D01*
Y763254D01*
X466041D01*
X465626Y763224D01*
X465271Y763194D01*
X464975Y763135D01*
X464738Y763106D01*
X464590Y763046D01*
X464502Y763017D01*
X464472D01*
X464235Y762898D01*
X463998Y762780D01*
X463791Y762632D01*
X463584Y762514D01*
X463436Y762366D01*
X463318Y762247D01*
X463258Y762188D01*
X463229Y762158D01*
X463110Y762010D01*
X462962Y761862D01*
X462637Y761418D01*
X462282Y760945D01*
X461897Y760412D01*
X461571Y759938D01*
X461423Y759702D01*
X461305Y759524D01*
X461186Y759376D01*
X461098Y759258D01*
X461068Y759169D01*
X461038Y759139D01*
X458078Y754699D01*
X453106D01*
X455622Y758695D01*
X455888Y759110D01*
X456154Y759524D01*
X456391Y759879D01*
X456628Y760205D01*
X456835Y760501D01*
X457013Y760797D01*
X457368Y761241D01*
X457634Y761596D01*
X457812Y761833D01*
X457960Y761981D01*
X457990Y762010D01*
X458315Y762366D01*
X458700Y762691D01*
X459055Y762958D01*
X459410Y763224D01*
X459706Y763431D01*
X459943Y763579D01*
X460121Y763698D01*
X460150Y763727D01*
X460180D01*
X459677Y763816D01*
X459233Y763934D01*
X458818Y764053D01*
X458404Y764201D01*
X458049Y764349D01*
X457723Y764497D01*
X457398Y764645D01*
X457131Y764822D01*
X456894Y764970D01*
X456687Y765118D01*
X456510Y765266D01*
X456391Y765385D01*
X456273Y765474D01*
X456184Y765562D01*
X456154Y765592D01*
X456125Y765622D01*
X455888Y765918D01*
X455681Y766214D01*
X455326Y766865D01*
X455089Y767486D01*
X454941Y768108D01*
X454822Y768641D01*
X454793Y768848D01*
Y769055D01*
X454763Y769203D01*
Y769351D01*
Y769410D01*
Y769440D01*
X454793Y770091D01*
X454911Y770713D01*
X455059Y771246D01*
X455207Y771719D01*
X455385Y772104D01*
X455533Y772400D01*
X455592Y772489D01*
X455651Y772578D01*
X455681Y772607D01*
Y772637D01*
X456036Y773140D01*
X456421Y773554D01*
X456806Y773880D01*
X457190Y774176D01*
X457546Y774354D01*
X457812Y774502D01*
X457990Y774590D01*
X458019Y774620D01*
X458049D01*
X458345Y774709D01*
X458670Y774798D01*
X459410Y774946D01*
X460210Y775034D01*
X460979Y775123D01*
X461364D01*
X461690Y775153D01*
X462015D01*
X462282Y775182D01*
X471517D01*
Y754699D01*
D02*
G37*
G36*
X373089Y834620D02*
X373474Y833998D01*
X373888Y833406D01*
X374303Y832933D01*
X374658Y832548D01*
X374984Y832252D01*
X375102Y832134D01*
X375191Y832045D01*
X375250Y832015D01*
X375280Y831986D01*
X375931Y831512D01*
X376552Y831098D01*
X377115Y830772D01*
X377618Y830535D01*
X378032Y830358D01*
X378328Y830210D01*
X378447Y830180D01*
X378536Y830150D01*
X378565Y830121D01*
X378595D01*
Y826569D01*
X377529Y826983D01*
X376582Y827427D01*
X376138Y827664D01*
X375724Y827930D01*
X375339Y828167D01*
X374984Y828404D01*
X374658Y828641D01*
X374362Y828848D01*
X374125Y829026D01*
X373918Y829203D01*
X373740Y829351D01*
X373622Y829440D01*
X373563Y829499D01*
X373533Y829529D01*
Y814699D01*
X369596D01*
Y835301D01*
X372793D01*
X373089Y834620D01*
D02*
G37*
G36*
X399404Y814699D02*
X395260D01*
Y823254D01*
X393928D01*
X393513Y823224D01*
X393158Y823194D01*
X392862Y823135D01*
X392625Y823106D01*
X392477Y823046D01*
X392388Y823017D01*
X392359D01*
X392122Y822898D01*
X391885Y822780D01*
X391678Y822632D01*
X391471Y822514D01*
X391323Y822366D01*
X391204Y822247D01*
X391145Y822188D01*
X391116Y822158D01*
X390997Y822010D01*
X390849Y821862D01*
X390524Y821418D01*
X390168Y820945D01*
X389784Y820412D01*
X389458Y819938D01*
X389310Y819702D01*
X389192Y819524D01*
X389073Y819376D01*
X388984Y819258D01*
X388955Y819169D01*
X388925Y819139D01*
X385965Y814699D01*
X380992D01*
X383508Y818695D01*
X383775Y819110D01*
X384041Y819524D01*
X384278Y819879D01*
X384515Y820205D01*
X384722Y820501D01*
X384900Y820797D01*
X385255Y821241D01*
X385521Y821596D01*
X385699Y821833D01*
X385847Y821981D01*
X385876Y822010D01*
X386202Y822366D01*
X386587Y822691D01*
X386942Y822958D01*
X387297Y823224D01*
X387593Y823431D01*
X387830Y823579D01*
X388008Y823698D01*
X388037Y823727D01*
X388067D01*
X387564Y823816D01*
X387120Y823934D01*
X386705Y824053D01*
X386291Y824201D01*
X385936Y824349D01*
X385610Y824497D01*
X385284Y824645D01*
X385018Y824822D01*
X384781Y824970D01*
X384574Y825118D01*
X384396Y825266D01*
X384278Y825385D01*
X384160Y825474D01*
X384071Y825562D01*
X384041Y825592D01*
X384012Y825622D01*
X383775Y825918D01*
X383568Y826214D01*
X383212Y826865D01*
X382976Y827486D01*
X382828Y828108D01*
X382709Y828641D01*
X382680Y828848D01*
Y829055D01*
X382650Y829203D01*
Y829351D01*
Y829410D01*
Y829440D01*
X382680Y830091D01*
X382798Y830713D01*
X382946Y831246D01*
X383094Y831719D01*
X383272Y832104D01*
X383420Y832400D01*
X383479Y832489D01*
X383538Y832578D01*
X383568Y832607D01*
Y832637D01*
X383923Y833140D01*
X384308Y833554D01*
X384692Y833880D01*
X385077Y834176D01*
X385432Y834354D01*
X385699Y834502D01*
X385876Y834590D01*
X385906Y834620D01*
X385936D01*
X386232Y834709D01*
X386557Y834798D01*
X387297Y834946D01*
X388096Y835034D01*
X388866Y835123D01*
X389251D01*
X389576Y835153D01*
X389902D01*
X390168Y835182D01*
X399404D01*
Y814699D01*
D02*
G37*
G36*
X296137Y549290D02*
X292970Y548846D01*
X292704Y549112D01*
X292437Y549349D01*
X292171Y549556D01*
X291904Y549734D01*
X291401Y550000D01*
X290928Y550178D01*
X290513Y550266D01*
X290217Y550326D01*
X290099Y550355D01*
X289921D01*
X289448Y550326D01*
X289004Y550207D01*
X288619Y550059D01*
X288293Y549882D01*
X288056Y549674D01*
X287849Y549526D01*
X287731Y549408D01*
X287701Y549378D01*
X287405Y548994D01*
X287198Y548550D01*
X287050Y548076D01*
X286961Y547602D01*
X286872Y547188D01*
X286843Y546862D01*
Y546714D01*
Y546626D01*
Y546566D01*
Y546537D01*
X286872Y545826D01*
X286961Y545205D01*
X287109Y544702D01*
X287257Y544287D01*
X287435Y543932D01*
X287553Y543695D01*
X287672Y543577D01*
X287701Y543518D01*
X288027Y543192D01*
X288382Y542926D01*
X288737Y542748D01*
X289063Y542630D01*
X289359Y542570D01*
X289596Y542541D01*
X289744Y542511D01*
X289803D01*
X290188Y542541D01*
X290572Y542630D01*
X290898Y542748D01*
X291164Y542896D01*
X291401Y543044D01*
X291579Y543162D01*
X291697Y543251D01*
X291727Y543281D01*
X291993Y543606D01*
X292230Y543932D01*
X292408Y544287D01*
X292526Y544613D01*
X292615Y544909D01*
X292674Y545175D01*
X292704Y545323D01*
Y545382D01*
X296611Y544968D01*
X296522Y544494D01*
X296433Y544050D01*
X296137Y543251D01*
X295812Y542541D01*
X295634Y542245D01*
X295427Y541949D01*
X295249Y541712D01*
X295101Y541505D01*
X294924Y541327D01*
X294805Y541150D01*
X294687Y541031D01*
X294598Y540942D01*
X294539Y540913D01*
X294509Y540883D01*
X294154Y540617D01*
X293799Y540380D01*
X293414Y540173D01*
X293029Y540025D01*
X292230Y539729D01*
X291520Y539551D01*
X291164Y539492D01*
X290868Y539462D01*
X290572Y539433D01*
X290336Y539403D01*
X290128Y539374D01*
X289862D01*
X289211Y539403D01*
X288589Y539492D01*
X288027Y539610D01*
X287494Y539788D01*
X286991Y539995D01*
X286547Y540232D01*
X286132Y540469D01*
X285748Y540735D01*
X285422Y540972D01*
X285126Y541209D01*
X284860Y541446D01*
X284652Y541653D01*
X284504Y541830D01*
X284386Y541949D01*
X284327Y542038D01*
X284297Y542067D01*
X284031Y542452D01*
X283794Y542837D01*
X283616Y543222D01*
X283439Y543636D01*
X283172Y544406D01*
X282995Y545116D01*
X282936Y545412D01*
X282906Y545708D01*
X282847Y545974D01*
Y546211D01*
X282817Y546389D01*
Y546507D01*
Y546596D01*
Y546626D01*
X282847Y547188D01*
X282906Y547721D01*
X282995Y548224D01*
X283113Y548698D01*
X283232Y549112D01*
X283409Y549526D01*
X283557Y549911D01*
X283735Y550237D01*
X283912Y550533D01*
X284060Y550799D01*
X284238Y551036D01*
X284356Y551214D01*
X284475Y551362D01*
X284564Y551480D01*
X284623Y551539D01*
X284652Y551569D01*
X285008Y551894D01*
X285363Y552190D01*
X285748Y552457D01*
X286132Y552694D01*
X286488Y552871D01*
X286872Y553019D01*
X287553Y553256D01*
X287879Y553345D01*
X288175Y553404D01*
X288441Y553434D01*
X288648Y553463D01*
X288826Y553493D01*
X289092D01*
X289596Y553463D01*
X290099Y553374D01*
X290543Y553286D01*
X290957Y553167D01*
X291283Y553019D01*
X291549Y552930D01*
X291727Y552842D01*
X291756Y552812D01*
X291786D01*
X291164Y556305D01*
X283735D01*
Y559975D01*
X294124D01*
X296137Y549290D01*
D02*
G37*
G36*
X308392Y560597D02*
X309161Y560508D01*
X309842Y560360D01*
X310523Y560182D01*
X311115Y559975D01*
X311707Y559738D01*
X312210Y559472D01*
X312684Y559206D01*
X313128Y558939D01*
X313483Y558673D01*
X313808Y558436D01*
X314075Y558229D01*
X314282Y558051D01*
X314430Y557903D01*
X314519Y557814D01*
X314548Y557785D01*
X315022Y557222D01*
X315407Y556630D01*
X315762Y556009D01*
X316058Y555358D01*
X316324Y554677D01*
X316532Y554026D01*
X316709Y553374D01*
X316857Y552753D01*
X316976Y552131D01*
X317035Y551598D01*
X317094Y551095D01*
X317153Y550681D01*
Y550326D01*
X317183Y550059D01*
Y549882D01*
Y549852D01*
Y549822D01*
X317153Y548934D01*
X317064Y548106D01*
X316946Y547306D01*
X316768Y546596D01*
X316591Y545915D01*
X316354Y545264D01*
X316117Y544702D01*
X315880Y544198D01*
X315644Y543725D01*
X315407Y543310D01*
X315170Y542985D01*
X314992Y542689D01*
X314815Y542482D01*
X314696Y542304D01*
X314608Y542215D01*
X314578Y542186D01*
X314075Y541682D01*
X313542Y541268D01*
X312980Y540883D01*
X312417Y540587D01*
X311855Y540321D01*
X311292Y540084D01*
X310760Y539906D01*
X310256Y539758D01*
X309753Y539640D01*
X309309Y539551D01*
X308895Y539492D01*
X308569Y539462D01*
X308273Y539433D01*
X308066Y539403D01*
X307888D01*
X307267Y539433D01*
X306704Y539462D01*
X306142Y539551D01*
X305639Y539670D01*
X305165Y539788D01*
X304721Y539906D01*
X304307Y540054D01*
X303922Y540232D01*
X303596Y540380D01*
X303300Y540528D01*
X303034Y540646D01*
X302827Y540765D01*
X302649Y540883D01*
X302531Y540972D01*
X302472Y541002D01*
X302442Y541031D01*
X302057Y541357D01*
X301702Y541712D01*
X301051Y542511D01*
X300518Y543340D01*
X300104Y544139D01*
X299926Y544524D01*
X299778Y544879D01*
X299660Y545205D01*
X299541Y545471D01*
X299452Y545708D01*
X299393Y545886D01*
X299364Y546004D01*
Y546034D01*
X303389Y547277D01*
X303626Y546478D01*
X303892Y545797D01*
X304159Y545234D01*
X304455Y544761D01*
X304692Y544406D01*
X304899Y544169D01*
X305047Y544021D01*
X305106Y543962D01*
X305580Y543606D01*
X306053Y543370D01*
X306527Y543192D01*
X306941Y543044D01*
X307326Y542985D01*
X307652Y542955D01*
X307770Y542926D01*
X307918D01*
X308332Y542955D01*
X308717Y542985D01*
X309428Y543192D01*
X310049Y543429D01*
X310552Y543754D01*
X310967Y544050D01*
X311263Y544287D01*
X311381Y544406D01*
X311470Y544494D01*
X311500Y544524D01*
X311529Y544554D01*
X311766Y544879D01*
X311973Y545264D01*
X312180Y545678D01*
X312328Y546122D01*
X312565Y547040D01*
X312743Y547958D01*
X312802Y548402D01*
X312832Y548786D01*
X312891Y549171D01*
Y549497D01*
X312920Y549734D01*
Y549941D01*
Y550089D01*
Y550118D01*
X312891Y550799D01*
X312861Y551421D01*
X312802Y551983D01*
X312713Y552516D01*
X312595Y552990D01*
X312476Y553434D01*
X312358Y553818D01*
X312210Y554174D01*
X312092Y554470D01*
X311973Y554736D01*
X311855Y554943D01*
X311736Y555121D01*
X311648Y555269D01*
X311588Y555358D01*
X311529Y555417D01*
Y555446D01*
X311263Y555742D01*
X310967Y556009D01*
X310671Y556216D01*
X310345Y556394D01*
X309724Y556690D01*
X309132Y556897D01*
X308628Y557015D01*
X308392Y557045D01*
X308214Y557074D01*
X308036Y557104D01*
X307829D01*
X307237Y557074D01*
X306704Y556956D01*
X306231Y556808D01*
X305816Y556630D01*
X305491Y556453D01*
X305254Y556305D01*
X305106Y556186D01*
X305047Y556157D01*
X304662Y555802D01*
X304307Y555387D01*
X304040Y554973D01*
X303833Y554558D01*
X303685Y554203D01*
X303596Y553937D01*
X303537Y553818D01*
Y553730D01*
X303508Y553700D01*
Y553670D01*
X299423Y554647D01*
X299719Y555506D01*
X300044Y556246D01*
X300400Y556897D01*
X300725Y557430D01*
X301051Y557844D01*
X301169Y558022D01*
X301288Y558170D01*
X301376Y558258D01*
X301465Y558347D01*
X301495Y558406D01*
X301524D01*
X301968Y558791D01*
X302472Y559146D01*
X302945Y559442D01*
X303448Y559679D01*
X303981Y559916D01*
X304484Y560094D01*
X304988Y560242D01*
X305461Y560360D01*
X305905Y560449D01*
X306320Y560508D01*
X306675Y560567D01*
X307000Y560597D01*
X307267Y560626D01*
X307622D01*
X308392Y560597D01*
D02*
G37*
G36*
X308495Y430582D02*
X309265Y430493D01*
X309946Y430345D01*
X310626Y430168D01*
X311218Y429960D01*
X311810Y429724D01*
X312314Y429457D01*
X312787Y429191D01*
X313231Y428924D01*
X313586Y428658D01*
X313912Y428421D01*
X314178Y428214D01*
X314386Y428036D01*
X314534Y427888D01*
X314622Y427800D01*
X314652Y427770D01*
X315126Y427208D01*
X315510Y426616D01*
X315866Y425994D01*
X316162Y425343D01*
X316428Y424662D01*
X316635Y424011D01*
X316813Y423360D01*
X316961Y422738D01*
X317079Y422116D01*
X317138Y421584D01*
X317198Y421080D01*
X317257Y420666D01*
Y420311D01*
X317286Y420044D01*
Y419867D01*
Y419837D01*
Y419808D01*
X317257Y418920D01*
X317168Y418091D01*
X317050Y417292D01*
X316872Y416581D01*
X316694Y415900D01*
X316458Y415249D01*
X316221Y414687D01*
X315984Y414184D01*
X315747Y413710D01*
X315510Y413296D01*
X315274Y412970D01*
X315096Y412674D01*
X314918Y412467D01*
X314800Y412289D01*
X314711Y412200D01*
X314682Y412171D01*
X314178Y411668D01*
X313646Y411253D01*
X313083Y410868D01*
X312521Y410572D01*
X311958Y410306D01*
X311396Y410069D01*
X310863Y409892D01*
X310360Y409744D01*
X309857Y409625D01*
X309413Y409536D01*
X308998Y409477D01*
X308673Y409448D01*
X308377Y409418D01*
X308170Y409388D01*
X307992D01*
X307370Y409418D01*
X306808Y409448D01*
X306246Y409536D01*
X305742Y409655D01*
X305269Y409773D01*
X304825Y409892D01*
X304410Y410040D01*
X304026Y410217D01*
X303700Y410365D01*
X303404Y410513D01*
X303138Y410632D01*
X302930Y410750D01*
X302753Y410868D01*
X302634Y410957D01*
X302575Y410987D01*
X302546Y411016D01*
X302161Y411342D01*
X301806Y411697D01*
X301154Y412496D01*
X300622Y413325D01*
X300207Y414124D01*
X300030Y414509D01*
X299882Y414864D01*
X299763Y415190D01*
X299645Y415456D01*
X299556Y415693D01*
X299497Y415871D01*
X299467Y415989D01*
Y416019D01*
X303493Y417262D01*
X303730Y416463D01*
X303996Y415782D01*
X304262Y415220D01*
X304558Y414746D01*
X304795Y414391D01*
X305002Y414154D01*
X305150Y414006D01*
X305210Y413947D01*
X305683Y413592D01*
X306157Y413355D01*
X306630Y413177D01*
X307045Y413029D01*
X307430Y412970D01*
X307755Y412940D01*
X307874Y412911D01*
X308022D01*
X308436Y412940D01*
X308821Y412970D01*
X309531Y413177D01*
X310153Y413414D01*
X310656Y413740D01*
X311070Y414036D01*
X311366Y414272D01*
X311485Y414391D01*
X311574Y414480D01*
X311603Y414509D01*
X311633Y414539D01*
X311870Y414864D01*
X312077Y415249D01*
X312284Y415664D01*
X312432Y416108D01*
X312669Y417025D01*
X312846Y417943D01*
X312906Y418387D01*
X312935Y418772D01*
X312994Y419156D01*
Y419482D01*
X313024Y419719D01*
Y419926D01*
Y420074D01*
Y420104D01*
X312994Y420784D01*
X312965Y421406D01*
X312906Y421968D01*
X312817Y422501D01*
X312698Y422975D01*
X312580Y423419D01*
X312462Y423804D01*
X312314Y424159D01*
X312195Y424455D01*
X312077Y424721D01*
X311958Y424928D01*
X311840Y425106D01*
X311751Y425254D01*
X311692Y425343D01*
X311633Y425402D01*
Y425432D01*
X311366Y425728D01*
X311070Y425994D01*
X310774Y426201D01*
X310449Y426379D01*
X309827Y426675D01*
X309235Y426882D01*
X308732Y427000D01*
X308495Y427030D01*
X308318Y427060D01*
X308140Y427089D01*
X307933D01*
X307341Y427060D01*
X306808Y426941D01*
X306334Y426793D01*
X305920Y426616D01*
X305594Y426438D01*
X305358Y426290D01*
X305210Y426172D01*
X305150Y426142D01*
X304766Y425787D01*
X304410Y425372D01*
X304144Y424958D01*
X303937Y424544D01*
X303789Y424188D01*
X303700Y423922D01*
X303641Y423804D01*
Y423715D01*
X303611Y423685D01*
Y423656D01*
X299526Y424632D01*
X299822Y425491D01*
X300148Y426231D01*
X300503Y426882D01*
X300829Y427415D01*
X301154Y427829D01*
X301273Y428007D01*
X301391Y428155D01*
X301480Y428244D01*
X301569Y428332D01*
X301598Y428392D01*
X301628D01*
X302072Y428776D01*
X302575Y429132D01*
X303049Y429428D01*
X303552Y429664D01*
X304085Y429901D01*
X304588Y430079D01*
X305091Y430227D01*
X305565Y430345D01*
X306009Y430434D01*
X306423Y430493D01*
X306778Y430552D01*
X307104Y430582D01*
X307370Y430612D01*
X307726D01*
X308495Y430582D01*
D02*
G37*
G36*
X297454Y417262D02*
Y413858D01*
X289048D01*
Y409744D01*
X285259D01*
Y413858D01*
X282714D01*
Y417292D01*
X285259D01*
Y430316D01*
X288574D01*
X297454Y417262D01*
D02*
G37*
G36*
X490128Y531316D02*
X490602Y531286D01*
X491520Y531138D01*
X492289Y530901D01*
X492644Y530783D01*
X492970Y530635D01*
X493266Y530516D01*
X493503Y530368D01*
X493740Y530250D01*
X493917Y530161D01*
X494065Y530043D01*
X494154Y529984D01*
X494213Y529954D01*
X494243Y529924D01*
X494568Y529628D01*
X494864Y529332D01*
X495131Y528977D01*
X495368Y528592D01*
X495723Y527823D01*
X496019Y527083D01*
X496108Y526698D01*
X496196Y526372D01*
X496285Y526076D01*
X496315Y525810D01*
X496374Y525573D01*
Y525425D01*
X496404Y525307D01*
Y525277D01*
X492496Y524892D01*
X492437Y525484D01*
X492319Y525988D01*
X492200Y526432D01*
X492052Y526757D01*
X491934Y527024D01*
X491816Y527201D01*
X491727Y527320D01*
X491697Y527349D01*
X491401Y527586D01*
X491076Y527764D01*
X490750Y527912D01*
X490424Y528000D01*
X490158Y528060D01*
X489921Y528089D01*
X489714D01*
X489270Y528060D01*
X488885Y527971D01*
X488560Y527852D01*
X488264Y527734D01*
X488056Y527616D01*
X487879Y527497D01*
X487790Y527408D01*
X487760Y527379D01*
X487524Y527083D01*
X487346Y526757D01*
X487228Y526432D01*
X487139Y526106D01*
X487080Y525810D01*
X487050Y525544D01*
Y525396D01*
Y525366D01*
Y525336D01*
X487080Y524892D01*
X487168Y524478D01*
X487316Y524064D01*
X487464Y523708D01*
X487612Y523383D01*
X487760Y523146D01*
X487849Y522998D01*
X487879Y522939D01*
X487997Y522761D01*
X488175Y522554D01*
X488412Y522288D01*
X488648Y522051D01*
X489181Y521488D01*
X489714Y520926D01*
X490247Y520393D01*
X490484Y520156D01*
X490720Y519979D01*
X490898Y519801D01*
X491016Y519683D01*
X491105Y519594D01*
X491135Y519564D01*
X491727Y519002D01*
X492260Y518469D01*
X492763Y517966D01*
X493207Y517522D01*
X493621Y517078D01*
X493976Y516664D01*
X494302Y516308D01*
X494568Y515953D01*
X494805Y515657D01*
X495012Y515391D01*
X495190Y515184D01*
X495308Y514976D01*
X495427Y514858D01*
X495486Y514740D01*
X495545Y514680D01*
Y514651D01*
X495930Y513970D01*
X496226Y513260D01*
X496463Y512608D01*
X496640Y512016D01*
X496759Y511484D01*
X496788Y511276D01*
X496818Y511099D01*
X496848Y510951D01*
X496877Y510832D01*
Y510773D01*
Y510744D01*
X483113D01*
Y514384D01*
X490928D01*
X490691Y514769D01*
X490424Y515095D01*
X490306Y515243D01*
X490217Y515361D01*
X490158Y515420D01*
X490128Y515450D01*
X490010Y515568D01*
X489892Y515716D01*
X489536Y516042D01*
X489152Y516427D01*
X488767Y516812D01*
X488382Y517167D01*
X488056Y517463D01*
X487938Y517581D01*
X487849Y517670D01*
X487790Y517700D01*
X487760Y517729D01*
X487109Y518351D01*
X486576Y518854D01*
X486132Y519328D01*
X485777Y519683D01*
X485511Y519979D01*
X485333Y520186D01*
X485215Y520334D01*
X485185Y520364D01*
X484800Y520867D01*
X484475Y521340D01*
X484208Y521784D01*
X484001Y522169D01*
X483824Y522495D01*
X483705Y522761D01*
X483646Y522909D01*
X483616Y522968D01*
X483439Y523442D01*
X483320Y523916D01*
X483232Y524360D01*
X483172Y524774D01*
X483143Y525100D01*
X483113Y525366D01*
Y525544D01*
Y525603D01*
X483143Y526047D01*
X483202Y526491D01*
X483261Y526905D01*
X483380Y527290D01*
X483676Y527971D01*
X483972Y528563D01*
X484149Y528829D01*
X484297Y529036D01*
X484445Y529244D01*
X484593Y529392D01*
X484712Y529510D01*
X484771Y529628D01*
X484830Y529658D01*
X484860Y529688D01*
X485185Y529984D01*
X485570Y530250D01*
X485925Y530457D01*
X486340Y530635D01*
X487109Y530931D01*
X487879Y531138D01*
X488234Y531197D01*
X488560Y531256D01*
X488856Y531286D01*
X489122Y531316D01*
X489329Y531345D01*
X489625D01*
X490128Y531316D01*
D02*
G37*
G36*
X508096Y531582D02*
X508865Y531493D01*
X509546Y531345D01*
X510227Y531168D01*
X510819Y530960D01*
X511411Y530724D01*
X511914Y530457D01*
X512388Y530191D01*
X512832Y529924D01*
X513187Y529658D01*
X513512Y529421D01*
X513779Y529214D01*
X513986Y529036D01*
X514134Y528888D01*
X514223Y528800D01*
X514252Y528770D01*
X514726Y528208D01*
X515111Y527616D01*
X515466Y526994D01*
X515762Y526343D01*
X516028Y525662D01*
X516236Y525011D01*
X516413Y524360D01*
X516561Y523738D01*
X516680Y523116D01*
X516739Y522584D01*
X516798Y522080D01*
X516857Y521666D01*
Y521311D01*
X516887Y521044D01*
Y520867D01*
Y520837D01*
Y520808D01*
X516857Y519920D01*
X516768Y519091D01*
X516650Y518292D01*
X516472Y517581D01*
X516295Y516900D01*
X516058Y516249D01*
X515821Y515687D01*
X515584Y515184D01*
X515348Y514710D01*
X515111Y514296D01*
X514874Y513970D01*
X514696Y513674D01*
X514519Y513467D01*
X514400Y513289D01*
X514312Y513200D01*
X514282Y513171D01*
X513779Y512668D01*
X513246Y512253D01*
X512684Y511868D01*
X512121Y511572D01*
X511559Y511306D01*
X510996Y511069D01*
X510464Y510892D01*
X509960Y510744D01*
X509457Y510625D01*
X509013Y510536D01*
X508599Y510477D01*
X508273Y510448D01*
X507977Y510418D01*
X507770Y510388D01*
X507592D01*
X506971Y510418D01*
X506408Y510448D01*
X505846Y510536D01*
X505343Y510655D01*
X504869Y510773D01*
X504425Y510892D01*
X504011Y511040D01*
X503626Y511217D01*
X503300Y511365D01*
X503004Y511513D01*
X502738Y511632D01*
X502531Y511750D01*
X502353Y511868D01*
X502235Y511957D01*
X502176Y511987D01*
X502146Y512016D01*
X501761Y512342D01*
X501406Y512697D01*
X500755Y513496D01*
X500222Y514325D01*
X499808Y515124D01*
X499630Y515509D01*
X499482Y515864D01*
X499364Y516190D01*
X499245Y516456D01*
X499156Y516693D01*
X499097Y516871D01*
X499068Y516989D01*
Y517019D01*
X503093Y518262D01*
X503330Y517463D01*
X503596Y516782D01*
X503863Y516220D01*
X504159Y515746D01*
X504396Y515391D01*
X504603Y515154D01*
X504751Y515006D01*
X504810Y514947D01*
X505284Y514592D01*
X505757Y514355D01*
X506231Y514177D01*
X506645Y514029D01*
X507030Y513970D01*
X507356Y513940D01*
X507474Y513911D01*
X507622D01*
X508036Y513940D01*
X508421Y513970D01*
X509132Y514177D01*
X509753Y514414D01*
X510256Y514740D01*
X510671Y515036D01*
X510967Y515272D01*
X511085Y515391D01*
X511174Y515480D01*
X511204Y515509D01*
X511233Y515539D01*
X511470Y515864D01*
X511677Y516249D01*
X511884Y516664D01*
X512032Y517108D01*
X512269Y518025D01*
X512447Y518943D01*
X512506Y519387D01*
X512536Y519772D01*
X512595Y520156D01*
Y520482D01*
X512624Y520719D01*
Y520926D01*
Y521074D01*
Y521104D01*
X512595Y521784D01*
X512565Y522406D01*
X512506Y522968D01*
X512417Y523501D01*
X512299Y523975D01*
X512180Y524419D01*
X512062Y524804D01*
X511914Y525159D01*
X511796Y525455D01*
X511677Y525721D01*
X511559Y525928D01*
X511440Y526106D01*
X511352Y526254D01*
X511292Y526343D01*
X511233Y526402D01*
Y526432D01*
X510967Y526728D01*
X510671Y526994D01*
X510375Y527201D01*
X510049Y527379D01*
X509428Y527675D01*
X508836Y527882D01*
X508332Y528000D01*
X508096Y528030D01*
X507918Y528060D01*
X507740Y528089D01*
X507533D01*
X506941Y528060D01*
X506408Y527941D01*
X505935Y527793D01*
X505520Y527616D01*
X505195Y527438D01*
X504958Y527290D01*
X504810Y527172D01*
X504751Y527142D01*
X504366Y526787D01*
X504011Y526372D01*
X503744Y525958D01*
X503537Y525544D01*
X503389Y525188D01*
X503300Y524922D01*
X503241Y524804D01*
Y524715D01*
X503212Y524685D01*
Y524656D01*
X499127Y525632D01*
X499423Y526491D01*
X499748Y527231D01*
X500104Y527882D01*
X500429Y528415D01*
X500755Y528829D01*
X500873Y529007D01*
X500992Y529155D01*
X501080Y529244D01*
X501169Y529332D01*
X501199Y529392D01*
X501228D01*
X501672Y529776D01*
X502176Y530132D01*
X502649Y530428D01*
X503152Y530664D01*
X503685Y530901D01*
X504188Y531079D01*
X504692Y531227D01*
X505165Y531345D01*
X505609Y531434D01*
X506024Y531493D01*
X506379Y531552D01*
X506704Y531582D01*
X506971Y531612D01*
X507326D01*
X508096Y531582D01*
D02*
G37*
G36*
X443219Y619664D02*
X443604Y619043D01*
X444018Y618451D01*
X444433Y617977D01*
X444788Y617592D01*
X445114Y617296D01*
X445232Y617178D01*
X445321Y617089D01*
X445380Y617060D01*
X445410Y617030D01*
X446061Y616556D01*
X446682Y616142D01*
X447245Y615816D01*
X447748Y615580D01*
X448162Y615402D01*
X448458Y615254D01*
X448577Y615224D01*
X448666Y615195D01*
X448695Y615165D01*
X448725D01*
Y611613D01*
X447659Y612028D01*
X446712Y612472D01*
X446268Y612708D01*
X445854Y612975D01*
X445469Y613212D01*
X445114Y613448D01*
X444788Y613685D01*
X444492Y613892D01*
X444255Y614070D01*
X444048Y614248D01*
X443870Y614396D01*
X443752Y614484D01*
X443693Y614544D01*
X443663Y614573D01*
Y599744D01*
X439726D01*
Y620345D01*
X442923D01*
X443219Y619664D01*
D02*
G37*
G36*
X461482Y620582D02*
X462252Y620493D01*
X462933Y620345D01*
X463614Y620168D01*
X464206Y619960D01*
X464798Y619724D01*
X465301Y619457D01*
X465774Y619191D01*
X466218Y618924D01*
X466574Y618658D01*
X466899Y618421D01*
X467166Y618214D01*
X467373Y618036D01*
X467521Y617888D01*
X467610Y617800D01*
X467639Y617770D01*
X468113Y617208D01*
X468498Y616616D01*
X468853Y615994D01*
X469149Y615343D01*
X469415Y614662D01*
X469622Y614011D01*
X469800Y613360D01*
X469948Y612738D01*
X470066Y612116D01*
X470126Y611584D01*
X470185Y611080D01*
X470244Y610666D01*
Y610311D01*
X470274Y610044D01*
Y609867D01*
Y609837D01*
Y609808D01*
X470244Y608920D01*
X470155Y608091D01*
X470037Y607292D01*
X469859Y606581D01*
X469682Y605900D01*
X469445Y605249D01*
X469208Y604687D01*
X468971Y604184D01*
X468734Y603710D01*
X468498Y603296D01*
X468261Y602970D01*
X468083Y602674D01*
X467906Y602467D01*
X467787Y602289D01*
X467698Y602200D01*
X467669Y602171D01*
X467166Y601668D01*
X466633Y601253D01*
X466070Y600868D01*
X465508Y600572D01*
X464946Y600306D01*
X464383Y600069D01*
X463850Y599892D01*
X463347Y599744D01*
X462844Y599625D01*
X462400Y599536D01*
X461986Y599477D01*
X461660Y599448D01*
X461364Y599418D01*
X461157Y599388D01*
X460979D01*
X460358Y599418D01*
X459795Y599448D01*
X459233Y599536D01*
X458730Y599655D01*
X458256Y599773D01*
X457812Y599892D01*
X457398Y600040D01*
X457013Y600217D01*
X456687Y600365D01*
X456391Y600513D01*
X456125Y600632D01*
X455918Y600750D01*
X455740Y600868D01*
X455622Y600957D01*
X455562Y600987D01*
X455533Y601016D01*
X455148Y601342D01*
X454793Y601697D01*
X454142Y602496D01*
X453609Y603325D01*
X453194Y604124D01*
X453017Y604509D01*
X452869Y604864D01*
X452750Y605190D01*
X452632Y605456D01*
X452543Y605693D01*
X452484Y605871D01*
X452454Y605989D01*
Y606019D01*
X456480Y607262D01*
X456717Y606463D01*
X456983Y605782D01*
X457250Y605220D01*
X457546Y604746D01*
X457782Y604391D01*
X457990Y604154D01*
X458138Y604006D01*
X458197Y603947D01*
X458670Y603592D01*
X459144Y603355D01*
X459618Y603177D01*
X460032Y603029D01*
X460417Y602970D01*
X460742Y602940D01*
X460861Y602911D01*
X461009D01*
X461423Y602940D01*
X461808Y602970D01*
X462518Y603177D01*
X463140Y603414D01*
X463643Y603740D01*
X464058Y604036D01*
X464354Y604272D01*
X464472Y604391D01*
X464561Y604480D01*
X464590Y604509D01*
X464620Y604539D01*
X464857Y604864D01*
X465064Y605249D01*
X465271Y605664D01*
X465419Y606108D01*
X465656Y607025D01*
X465834Y607943D01*
X465893Y608387D01*
X465922Y608772D01*
X465982Y609156D01*
Y609482D01*
X466011Y609719D01*
Y609926D01*
Y610074D01*
Y610104D01*
X465982Y610784D01*
X465952Y611406D01*
X465893Y611968D01*
X465804Y612501D01*
X465686Y612975D01*
X465567Y613419D01*
X465449Y613804D01*
X465301Y614159D01*
X465182Y614455D01*
X465064Y614721D01*
X464946Y614928D01*
X464827Y615106D01*
X464738Y615254D01*
X464679Y615343D01*
X464620Y615402D01*
Y615432D01*
X464354Y615728D01*
X464058Y615994D01*
X463762Y616201D01*
X463436Y616379D01*
X462814Y616675D01*
X462222Y616882D01*
X461719Y617000D01*
X461482Y617030D01*
X461305Y617060D01*
X461127Y617089D01*
X460920D01*
X460328Y617060D01*
X459795Y616941D01*
X459322Y616793D01*
X458907Y616616D01*
X458582Y616438D01*
X458345Y616290D01*
X458197Y616172D01*
X458138Y616142D01*
X457753Y615787D01*
X457398Y615372D01*
X457131Y614958D01*
X456924Y614544D01*
X456776Y614188D01*
X456687Y613922D01*
X456628Y613804D01*
Y613715D01*
X456598Y613685D01*
Y613656D01*
X452514Y614632D01*
X452810Y615491D01*
X453135Y616231D01*
X453490Y616882D01*
X453816Y617415D01*
X454142Y617829D01*
X454260Y618007D01*
X454378Y618155D01*
X454467Y618244D01*
X454556Y618332D01*
X454586Y618392D01*
X454615D01*
X455059Y618776D01*
X455562Y619132D01*
X456036Y619428D01*
X456539Y619664D01*
X457072Y619901D01*
X457575Y620079D01*
X458078Y620227D01*
X458552Y620345D01*
X458996Y620434D01*
X459410Y620493D01*
X459766Y620552D01*
X460091Y620582D01*
X460358Y620612D01*
X460713D01*
X461482Y620582D01*
D02*
G37*
%LPC*%
G36*
X546000Y553000D02*
X525517D01*
Y548856D01*
X546000D01*
Y553000D01*
D02*
G37*
G36*
Y504000D02*
X524747D01*
Y484849D01*
D01*
Y493492D01*
X524777Y493226D01*
X524806Y492900D01*
X524836Y492515D01*
X524866Y492101D01*
X524954Y491657D01*
X525132Y490710D01*
X525428Y489733D01*
X525606Y489230D01*
X525813Y488756D01*
X526050Y488312D01*
X526346Y487898D01*
X526375Y487868D01*
X526405Y487809D01*
X526523Y487690D01*
X526642Y487542D01*
X526790Y487365D01*
X526997Y487187D01*
X527234Y486980D01*
X527500Y486743D01*
X527796Y486506D01*
X528122Y486270D01*
X528477Y486033D01*
X528891Y485826D01*
X529306Y485589D01*
X529750Y485411D01*
X530253Y485234D01*
X530756Y485115D01*
X531526Y489230D01*
X531496D01*
X531466Y489259D01*
X531289Y489318D01*
X531022Y489437D01*
X530667Y489614D01*
X530282Y489822D01*
X529898Y490118D01*
X529513Y490473D01*
X529158Y490887D01*
X529128Y490946D01*
X529010Y491094D01*
X528862Y491361D01*
X528714Y491686D01*
X528536Y492130D01*
X528418Y492634D01*
X528299Y493196D01*
X528270Y493847D01*
Y494114D01*
X528299Y494291D01*
X528329Y494528D01*
X528358Y494794D01*
X528418Y495090D01*
X528477Y495416D01*
X528684Y496097D01*
X528832Y496452D01*
X529010Y496807D01*
X529217Y497162D01*
X529424Y497518D01*
X529720Y497843D01*
X530016Y498169D01*
X530046Y498198D01*
X530105Y498228D01*
X530194Y498317D01*
X530342Y498406D01*
X530519Y498524D01*
X530726Y498672D01*
X530993Y498820D01*
X531289Y498938D01*
X531644Y499086D01*
X532029Y499234D01*
X532443Y499382D01*
X532887Y499501D01*
X533390Y499590D01*
X533953Y499678D01*
X534515Y499708D01*
X535137Y499738D01*
X535166D01*
X535285D01*
X535492D01*
X535729Y499708D01*
X536054Y499678D01*
X536380Y499649D01*
X536794Y499590D01*
X537209Y499530D01*
X538097Y499353D01*
X539014Y499057D01*
X539458Y498879D01*
X539873Y498672D01*
X540287Y498406D01*
X540642Y498139D01*
X540672Y498110D01*
X540731Y498050D01*
X540820Y497962D01*
X540938Y497843D01*
X541057Y497666D01*
X541234Y497488D01*
X541382Y497251D01*
X541560Y496985D01*
X541738Y496689D01*
X541886Y496393D01*
X542182Y495653D01*
X542300Y495238D01*
X542389Y494824D01*
X542448Y494350D01*
X542478Y493877D01*
Y493640D01*
X542448Y493403D01*
X542418Y493048D01*
X542359Y492663D01*
X542270Y492219D01*
X542152Y491746D01*
X541974Y491272D01*
Y491242D01*
X541945Y491213D01*
X541886Y491065D01*
X541767Y490798D01*
X541619Y490502D01*
X541442Y490147D01*
X541234Y489762D01*
X540998Y489378D01*
X540731Y489022D01*
X538097D01*
Y493758D01*
X534634D01*
Y484849D01*
X542862D01*
X542922Y484908D01*
X542981Y484997D01*
X543070Y485086D01*
X543188Y485234D01*
X543306Y485382D01*
X543602Y485796D01*
X543928Y486358D01*
X544313Y487010D01*
X544698Y487750D01*
X545053Y488638D01*
Y488667D01*
X545082Y488756D01*
X545142Y488874D01*
X545201Y489052D01*
X545260Y489289D01*
X545349Y489555D01*
X545438Y489851D01*
X545526Y490177D01*
X545704Y490917D01*
X545852Y491775D01*
X545970Y492663D01*
X546000Y493610D01*
Y493936D01*
X545970Y494143D01*
Y494439D01*
X545941Y494765D01*
X545882Y495120D01*
X545822Y495534D01*
X545674Y496393D01*
X545438Y497340D01*
X545112Y498317D01*
X544905Y498761D01*
X544668Y499234D01*
X544638Y499264D01*
X544609Y499323D01*
X544520Y499471D01*
X544402Y499619D01*
X544283Y499826D01*
X544106Y500034D01*
X543898Y500300D01*
X543662Y500566D01*
X543129Y501158D01*
X542448Y501750D01*
X541678Y502313D01*
X540790Y502816D01*
X540761D01*
X540672Y502875D01*
X540524Y502934D01*
X540346Y502994D01*
X540110Y503082D01*
X539843Y503201D01*
X539518Y503290D01*
X539162Y503408D01*
X538778Y503526D01*
X538334Y503615D01*
X537416Y503822D01*
X536410Y503941D01*
X535314Y504000D01*
X546000D01*
D01*
D02*
G37*
G36*
X545615Y481001D02*
X525132D01*
Y464721D01*
X545615D01*
Y468865D01*
X532118Y477182D01*
X545615D01*
Y481001D01*
D02*
G37*
G36*
Y460340D02*
X525132D01*
Y443202D01*
D01*
Y452170D01*
X525162Y451934D01*
X525191Y451371D01*
X525221Y450750D01*
X525310Y450098D01*
X525398Y449477D01*
X525546Y448914D01*
Y448885D01*
X525576Y448826D01*
X525606Y448737D01*
X525635Y448618D01*
X525783Y448263D01*
X525990Y447849D01*
X526257Y447375D01*
X526582Y446842D01*
X526967Y446339D01*
X527441Y445836D01*
Y445806D01*
X527500Y445777D01*
X527678Y445629D01*
X527974Y445392D01*
X528358Y445126D01*
X528832Y444800D01*
X529394Y444474D01*
X530046Y444149D01*
X530756Y443882D01*
X530786D01*
X530845Y443853D01*
X530963Y443823D01*
X531111Y443764D01*
X531289Y443734D01*
X531526Y443675D01*
X531792Y443616D01*
X532088Y443527D01*
X532414Y443468D01*
X532798Y443409D01*
X533183Y443350D01*
X533627Y443320D01*
X534545Y443231D01*
X535581Y443202D01*
X545615D01*
X535995D01*
X536232Y443231D01*
X536469D01*
X536765Y443261D01*
X537090Y443290D01*
X537771Y443350D01*
X538482Y443468D01*
X539222Y443646D01*
X539932Y443853D01*
X539962D01*
X540021Y443882D01*
X540139Y443942D01*
X540317Y444001D01*
X540494Y444060D01*
X540702Y444178D01*
X541234Y444415D01*
X541797Y444711D01*
X542418Y445096D01*
X543010Y445540D01*
X543573Y446043D01*
X543632Y446102D01*
X543750Y446250D01*
X543928Y446487D01*
X544165Y446813D01*
X544431Y447227D01*
X544698Y447701D01*
X544964Y448293D01*
X545201Y448944D01*
Y448974D01*
X545230Y449003D01*
Y449092D01*
X545260Y449181D01*
X545319Y449506D01*
X545408Y449921D01*
X545497Y450424D01*
X545556Y451046D01*
X545586Y451786D01*
X545615Y452585D01*
Y460340D01*
D02*
G37*
G36*
X535581Y443202D02*
D01*
X525132D01*
X535581D01*
D02*
G37*
%LPD*%
G36*
X534782Y503970D02*
X534486D01*
X534160Y503941D01*
X533805Y503882D01*
X533390Y503822D01*
X532532Y503674D01*
X531555Y503438D01*
X530578Y503112D01*
X530105Y502905D01*
X529631Y502668D01*
X529602Y502638D01*
X529513Y502609D01*
X529394Y502520D01*
X529217Y502431D01*
X529010Y502283D01*
X528773Y502106D01*
X528506Y501898D01*
X528210Y501691D01*
X527914Y501425D01*
X527589Y501129D01*
X527263Y500803D01*
X526938Y500448D01*
X526642Y500063D01*
X526316Y499678D01*
X525783Y498761D01*
Y498731D01*
X525724Y498672D01*
X525694Y498554D01*
X525606Y498406D01*
X525546Y498198D01*
X525458Y497991D01*
X525369Y497695D01*
X525250Y497399D01*
X525162Y497074D01*
X525073Y496689D01*
X524984Y496274D01*
X524895Y495860D01*
X524777Y494913D01*
X524747Y493847D01*
Y504000D01*
X534989D01*
X534782Y503970D01*
D02*
G37*
G36*
X538926Y468539D02*
X525132D01*
Y477005D01*
X538926Y468539D01*
D02*
G37*
G36*
X542152Y452555D02*
X542122Y452170D01*
Y451756D01*
X542063Y451342D01*
X542034Y450957D01*
X541974Y450631D01*
Y450572D01*
X541915Y450454D01*
X541856Y450276D01*
X541767Y450039D01*
X541649Y449773D01*
X541501Y449506D01*
X541323Y449240D01*
X541116Y448974D01*
X541086Y448944D01*
X540998Y448855D01*
X540850Y448737D01*
X540642Y448589D01*
X540376Y448441D01*
X540050Y448234D01*
X539636Y448086D01*
X539162Y447908D01*
X539133D01*
X539103Y447878D01*
X539014D01*
X538896Y447849D01*
X538778Y447790D01*
X538600Y447760D01*
X538156Y447671D01*
X537623Y447612D01*
X537002Y447523D01*
X536232Y447494D01*
X535403Y447464D01*
X535374D01*
X535285D01*
X535166D01*
X535018D01*
X534811D01*
X534574Y447494D01*
X534071Y447523D01*
X533479Y447582D01*
X532858Y447642D01*
X532295Y447760D01*
X531762Y447908D01*
X531733D01*
X531703Y447938D01*
X531555Y447997D01*
X531318Y448086D01*
X531022Y448204D01*
X530726Y448382D01*
X530401Y448589D01*
X530075Y448826D01*
X529779Y449092D01*
X529750Y449122D01*
X529661Y449210D01*
X529542Y449388D01*
X529394Y449595D01*
X529217Y449891D01*
X529069Y450217D01*
X528921Y450572D01*
X528802Y450986D01*
Y451016D01*
X528773Y451164D01*
X528743Y451401D01*
X528684Y451726D01*
Y451934D01*
X528654Y452200D01*
Y452466D01*
X528625Y452762D01*
Y453118D01*
X528595Y453502D01*
Y456196D01*
X542152D01*
Y452555D01*
D02*
G37*
%LPC*%
G36*
X546000Y701000D02*
X525398D01*
D01*
X540406D01*
X539991Y697093D01*
X540050D01*
X540198Y697063D01*
X540465Y697004D01*
X540761Y696915D01*
X541086Y696797D01*
X541442Y696619D01*
X541767Y696382D01*
X542093Y696116D01*
X542122Y696086D01*
X542211Y695968D01*
X542330Y695790D01*
X542478Y695554D01*
X542626Y695287D01*
X542744Y694962D01*
X542833Y694577D01*
X542862Y694192D01*
Y694133D01*
X542833Y693985D01*
X542803Y693748D01*
X542744Y693452D01*
X542626Y693126D01*
X542448Y692771D01*
X542182Y692416D01*
X541856Y692090D01*
X541797Y692061D01*
X541678Y691942D01*
X541442Y691824D01*
X541086Y691646D01*
X540672Y691498D01*
X540169Y691350D01*
X539547Y691262D01*
X538837Y691232D01*
X538807D01*
X538748D01*
X538659D01*
X538511D01*
X538186Y691262D01*
X537771Y691350D01*
X537298Y691439D01*
X536824Y691587D01*
X536380Y691794D01*
X535995Y692090D01*
X535966Y692120D01*
X535847Y692238D01*
X535699Y692446D01*
X535492Y692682D01*
X535314Y693008D01*
X535166Y693393D01*
X535048Y693837D01*
X535018Y694310D01*
Y694488D01*
X535048Y694606D01*
X535107Y694902D01*
X535196Y695317D01*
X535374Y695790D01*
X535640Y696294D01*
X535818Y696560D01*
X536025Y696826D01*
X536262Y697093D01*
X536528Y697359D01*
X536084Y700526D01*
X525398Y698514D01*
Y687206D01*
Y688124D01*
X529069D01*
Y695554D01*
X532562Y696175D01*
Y696146D01*
X532532Y696116D01*
X532443Y695938D01*
X532354Y695672D01*
X532206Y695346D01*
X532088Y694932D01*
X531999Y694488D01*
X531910Y693985D01*
X531881Y693482D01*
Y693215D01*
X531910Y693038D01*
X531940Y692830D01*
X531970Y692564D01*
X532029Y692268D01*
X532118Y691942D01*
X532354Y691262D01*
X532502Y690877D01*
X532680Y690522D01*
X532917Y690137D01*
X533183Y689752D01*
X533479Y689397D01*
X533805Y689042D01*
X533834Y689012D01*
X533894Y688953D01*
X534012Y688864D01*
X534160Y688746D01*
X534338Y688627D01*
X534574Y688450D01*
X534841Y688302D01*
X535137Y688124D01*
X535462Y687946D01*
X535847Y687798D01*
X536262Y687621D01*
X536676Y687502D01*
X537150Y687384D01*
X537653Y687295D01*
X538186Y687236D01*
X538748Y687206D01*
X538985D01*
X539162Y687236D01*
X539399D01*
X539666Y687295D01*
X539962Y687325D01*
X540258Y687384D01*
X540968Y687562D01*
X541738Y687828D01*
X542152Y688006D01*
X542537Y688183D01*
X542922Y688420D01*
X543306Y688686D01*
X543336Y688716D01*
X543425Y688775D01*
X543543Y688894D01*
X543721Y689042D01*
X543928Y689249D01*
X544165Y689515D01*
X544402Y689811D01*
X544638Y690137D01*
X544905Y690522D01*
X545142Y690936D01*
X545378Y691380D01*
X545586Y691883D01*
X545763Y692416D01*
X545882Y692978D01*
X545970Y693600D01*
X546000Y694251D01*
Y694606D01*
Y694518D01*
X545970Y694725D01*
X545941Y694962D01*
X545911Y695258D01*
X545882Y695554D01*
X545822Y695909D01*
X545645Y696619D01*
X545349Y697418D01*
X545201Y697803D01*
X544994Y698188D01*
X544757Y698543D01*
X544490Y698898D01*
X544461Y698928D01*
X544431Y698987D01*
X544342Y699076D01*
X544224Y699194D01*
X544046Y699313D01*
X543869Y699490D01*
X543662Y699638D01*
X543425Y699816D01*
X543129Y700023D01*
X542833Y700201D01*
X542122Y700526D01*
X541323Y700822D01*
X540879Y700911D01*
X540406Y701000D01*
X546000D01*
D01*
D02*
G37*
G36*
X545615Y686348D02*
X525132D01*
Y667256D01*
D01*
X545615Y674538D01*
Y679007D01*
X525132Y686348D01*
X545615D01*
D01*
D02*
G37*
%LPD*%
G36*
X540287Y676669D02*
X525132Y671666D01*
Y681878D01*
X540287Y676669D01*
D02*
G37*
%LPC*%
G36*
X131000Y796612D02*
Y791314D01*
X125642D01*
Y796612D01*
X122061D01*
Y791314D01*
X116674D01*
Y792882D01*
Y782345D01*
Y787643D01*
X122061D01*
Y782345D01*
X116674D01*
X131000D01*
D01*
X125642D01*
Y787643D01*
X131000D01*
Y796612D01*
D02*
G37*
G36*
X114217Y800253D02*
D01*
Y789774D01*
X114187Y790011D01*
Y790278D01*
X114158Y790574D01*
X114128Y790929D01*
X114098Y791314D01*
X113980Y792142D01*
X113832Y793030D01*
X113595Y793918D01*
X113299Y794747D01*
Y794777D01*
X113270Y794806D01*
X113210Y794895D01*
X113181Y795014D01*
X113003Y795310D01*
X112796Y795694D01*
X112530Y796138D01*
X112204Y796582D01*
X111819Y797086D01*
X111405Y797559D01*
X111375Y797589D01*
X111346Y797618D01*
X111198Y797766D01*
X110931Y798003D01*
X110606Y798270D01*
X110221Y798566D01*
X109777Y798891D01*
X109274Y799187D01*
X108741Y799424D01*
X108711D01*
X108652Y799454D01*
X108534Y799513D01*
X108386Y799542D01*
X108208Y799631D01*
X108001Y799690D01*
X107734Y799750D01*
X107468Y799838D01*
X106817Y799986D01*
X106077Y800134D01*
X105218Y800223D01*
X104330Y800253D01*
X104123D01*
X103886Y800223D01*
X103590D01*
X103206Y800164D01*
X102762Y800105D01*
X102258Y800016D01*
X101726Y799898D01*
X101163Y799750D01*
X100571Y799572D01*
X99979Y799335D01*
X99358Y799069D01*
X98766Y798743D01*
X98174Y798358D01*
X97611Y797914D01*
X97078Y797411D01*
X97049Y797382D01*
X96960Y797293D01*
X96812Y797115D01*
X96664Y796908D01*
X96457Y796612D01*
X96220Y796257D01*
X95983Y795842D01*
X95717Y795369D01*
X95450Y794866D01*
X95214Y794274D01*
X94977Y793622D01*
X94770Y792942D01*
X94592Y792172D01*
X94474Y791373D01*
X94385Y790514D01*
X94355Y789597D01*
Y789390D01*
X94385Y789123D01*
Y788768D01*
X94444Y788354D01*
X94503Y787880D01*
X94592Y787318D01*
X94681Y786755D01*
X94829Y786134D01*
X95006Y785482D01*
X95243Y784831D01*
X95510Y784180D01*
X95806Y783558D01*
X96190Y782937D01*
X96605Y782345D01*
X97078Y781782D01*
X97108Y781753D01*
X97197Y781664D01*
X97345Y781516D01*
X97582Y781338D01*
X97848Y781131D01*
X98174Y780894D01*
X98558Y780658D01*
X98973Y780391D01*
X99476Y780125D01*
X100009Y779888D01*
X100601Y779651D01*
X101252Y779444D01*
X101933Y779266D01*
X102673Y779118D01*
X103442Y779030D01*
X104271Y779000D01*
X94355D01*
D01*
X114217D01*
Y800253D01*
D02*
G37*
G36*
X91158Y799868D02*
X87014D01*
Y788738D01*
Y788709D01*
Y788620D01*
Y788502D01*
Y788324D01*
Y788087D01*
Y787850D01*
X86985Y787318D01*
Y786726D01*
X86955Y786163D01*
X86926Y785897D01*
Y785660D01*
X86896Y785482D01*
X86866Y785305D01*
Y785246D01*
X86807Y785098D01*
X86718Y784861D01*
X86600Y784565D01*
X86452Y784239D01*
X86215Y783914D01*
X85949Y783558D01*
X85623Y783262D01*
X85564Y783233D01*
X85446Y783144D01*
X85209Y783026D01*
X84913Y782907D01*
X84498Y782759D01*
X84025Y782641D01*
X83492Y782552D01*
X82870Y782522D01*
X82574D01*
X82278Y782552D01*
X81894Y782611D01*
X81450Y782700D01*
X81035Y782818D01*
X80591Y782996D01*
X80236Y783233D01*
X80206Y783262D01*
X80088Y783351D01*
X79940Y783499D01*
X79762Y783706D01*
X79585Y783973D01*
X79407Y784269D01*
X79259Y784594D01*
X79170Y784979D01*
Y785038D01*
X79141Y785186D01*
X79111Y785453D01*
X79052Y785808D01*
Y786045D01*
X79022Y786311D01*
Y786607D01*
X78993Y786903D01*
Y787258D01*
X78963Y787643D01*
Y788058D01*
Y788502D01*
Y799868D01*
X74819D01*
Y788176D01*
X74849Y787821D01*
Y787436D01*
Y787051D01*
X74908Y786193D01*
X74967Y785305D01*
X74997Y784920D01*
X75056Y784535D01*
X75115Y784180D01*
X75174Y783854D01*
Y783825D01*
X75204Y783795D01*
Y783706D01*
X75234Y783618D01*
X75322Y783322D01*
X75441Y782966D01*
X75618Y782552D01*
X75826Y782138D01*
X76092Y781694D01*
X76418Y781279D01*
X76447Y781220D01*
X76566Y781102D01*
X76773Y780924D01*
X77039Y780687D01*
X77394Y780421D01*
X77809Y780154D01*
X78282Y779858D01*
X78815Y779622D01*
X78845D01*
X78874Y779592D01*
X78963Y779562D01*
X79082Y779533D01*
X79230Y779474D01*
X79407Y779414D01*
X79644Y779355D01*
X79881Y779326D01*
X80443Y779207D01*
X81124Y779089D01*
X81894Y779030D01*
X82752Y779000D01*
X74819D01*
D01*
X91158D01*
D01*
X83226D01*
X83492Y779030D01*
X83758D01*
X84084Y779059D01*
X84410Y779089D01*
X85120Y779148D01*
X85860Y779266D01*
X86600Y779444D01*
X86926Y779533D01*
X87222Y779651D01*
X87251D01*
X87281Y779681D01*
X87458Y779770D01*
X87754Y779918D01*
X88080Y780125D01*
X88465Y780391D01*
X88879Y780687D01*
X89264Y781042D01*
X89619Y781427D01*
X89649Y781486D01*
X89767Y781605D01*
X89915Y781842D01*
X90093Y782138D01*
X90270Y782463D01*
X90478Y782848D01*
X90626Y783262D01*
X90774Y783706D01*
Y783736D01*
X90803Y783795D01*
Y783884D01*
X90833Y784032D01*
X90862Y784210D01*
X90892Y784446D01*
X90922Y784713D01*
X90951Y785009D01*
X91010Y785364D01*
X91040Y785749D01*
X91070Y786163D01*
X91099Y786637D01*
X91129Y787140D01*
Y787702D01*
X91158Y788294D01*
Y799868D01*
D02*
G37*
G36*
X71889D02*
X55638D01*
Y779385D01*
Y796405D01*
X61677D01*
Y779385D01*
X55638D01*
X71889D01*
X65821D01*
Y796405D01*
X71889D01*
Y799868D01*
D02*
G37*
%LPD*%
G36*
X104686Y796701D02*
X104922Y796671D01*
X105159Y796642D01*
X105751Y796523D01*
X106402Y796286D01*
X106758Y796168D01*
X107113Y795990D01*
X107438Y795783D01*
X107794Y795546D01*
X108119Y795280D01*
X108415Y794954D01*
X108445Y794925D01*
X108474Y794866D01*
X108563Y794777D01*
X108652Y794629D01*
X108770Y794422D01*
X108889Y794214D01*
X109037Y793948D01*
X109185Y793622D01*
X109333Y793267D01*
X109481Y792882D01*
X109599Y792438D01*
X109718Y791965D01*
X109806Y791432D01*
X109895Y790870D01*
X109925Y790278D01*
X109954Y789626D01*
Y789597D01*
Y789478D01*
Y789301D01*
X109925Y789064D01*
X109895Y788768D01*
X109866Y788413D01*
X109806Y788058D01*
X109747Y787643D01*
X109570Y786785D01*
X109274Y785926D01*
X109096Y785482D01*
X108889Y785068D01*
X108622Y784683D01*
X108356Y784328D01*
X108326Y784298D01*
X108267Y784239D01*
X108178Y784150D01*
X108060Y784062D01*
X107912Y783914D01*
X107705Y783766D01*
X107498Y783588D01*
X107231Y783440D01*
X106669Y783085D01*
X105958Y782818D01*
X105574Y782700D01*
X105159Y782611D01*
X104715Y782552D01*
X104271Y782522D01*
X104034D01*
X103857Y782552D01*
X103650Y782582D01*
X103413Y782611D01*
X102850Y782759D01*
X102199Y782966D01*
X101874Y783114D01*
X101518Y783262D01*
X101193Y783470D01*
X100838Y783706D01*
X100512Y783973D01*
X100216Y784298D01*
X100186Y784328D01*
X100157Y784387D01*
X100068Y784476D01*
X99979Y784624D01*
X99831Y784831D01*
X99713Y785068D01*
X99565Y785334D01*
X99417Y785660D01*
X99269Y786015D01*
X99121Y786400D01*
X98973Y786844D01*
X98854Y787347D01*
X98766Y787850D01*
X98677Y788413D01*
X98647Y789034D01*
X98618Y789686D01*
Y789715D01*
Y789834D01*
Y790011D01*
X98647Y790278D01*
X98677Y790574D01*
X98706Y790899D01*
X98736Y791284D01*
X98825Y791669D01*
X99002Y792527D01*
X99269Y793415D01*
X99446Y793859D01*
X99654Y794244D01*
X99920Y794629D01*
X100186Y794984D01*
X100216Y795014D01*
X100246Y795073D01*
X100334Y795132D01*
X100453Y795250D01*
X100630Y795398D01*
X100808Y795546D01*
X101015Y795694D01*
X101282Y795872D01*
X101548Y796020D01*
X101874Y796168D01*
X102554Y796464D01*
X102939Y796582D01*
X103354Y796642D01*
X103798Y796701D01*
X104271Y796730D01*
X104508D01*
X104686Y796701D01*
D02*
G37*
G36*
X114217Y779000D02*
X104478D01*
X104715Y779030D01*
X105011Y779059D01*
X105396Y779089D01*
X105840Y779148D01*
X106343Y779237D01*
X106876Y779355D01*
X107468Y779503D01*
X108030Y779681D01*
X108652Y779918D01*
X109244Y780184D01*
X109866Y780480D01*
X110428Y780865D01*
X110990Y781279D01*
X111523Y781782D01*
X111553Y781812D01*
X111642Y781901D01*
X111760Y782078D01*
X111938Y782286D01*
X112145Y782582D01*
X112382Y782937D01*
X112618Y783322D01*
X112855Y783795D01*
X113122Y784298D01*
X113358Y784890D01*
X113595Y785512D01*
X113802Y786193D01*
X113980Y786933D01*
X114098Y787732D01*
X114187Y788590D01*
X114217Y789478D01*
Y779000D01*
D02*
G37*
%LPC*%
G36*
X525517Y604000D02*
Y584908D01*
X546000Y592190D01*
Y596659D01*
X525517Y604000D01*
D02*
G37*
%LPD*%
G36*
X540672Y594321D02*
X525517Y589318D01*
Y599530D01*
X540672Y594321D01*
D02*
G37*
%LPC*%
G36*
X293360Y130640D02*
X293064D01*
X292857Y130610D01*
X292590Y130581D01*
X292294Y130551D01*
X291969Y130492D01*
X291614Y130433D01*
X290844Y130226D01*
X290074Y129930D01*
X289660Y129752D01*
X289305Y129545D01*
X288920Y129278D01*
X288594Y128982D01*
X288565Y128953D01*
X288506Y128923D01*
X288446Y128805D01*
X288328Y128686D01*
X288180Y128538D01*
X288032Y128331D01*
X287884Y128124D01*
X287706Y127858D01*
X287410Y127266D01*
X287114Y126585D01*
X286996Y126200D01*
X286937Y125786D01*
X286878Y125342D01*
X286848Y124898D01*
Y124661D01*
X286878Y124394D01*
X286907Y124069D01*
X286966Y123654D01*
X287055Y123210D01*
X287174Y122737D01*
X287351Y122263D01*
X287381Y122204D01*
X287440Y122056D01*
X287558Y121790D01*
X287736Y121464D01*
X287943Y121079D01*
X288210Y120635D01*
X288535Y120162D01*
X288920Y119658D01*
X288950Y119629D01*
X289068Y119481D01*
X289246Y119274D01*
X289512Y118978D01*
X289867Y118622D01*
X290311Y118149D01*
X290844Y117646D01*
X291495Y117024D01*
X291525Y116994D01*
X291584Y116965D01*
X291673Y116876D01*
X291791Y116758D01*
X292117Y116462D01*
X292502Y116106D01*
X292886Y115722D01*
X293271Y115337D01*
X293626Y115011D01*
X293745Y114863D01*
X293863Y114745D01*
X293893Y114715D01*
X293952Y114656D01*
X294041Y114538D01*
X294159Y114390D01*
X294426Y114064D01*
X294662Y113679D01*
X286848D01*
Y110038D01*
X300612D01*
Y110127D01*
X300582Y110246D01*
X300553Y110394D01*
X300523Y110571D01*
X300494Y110778D01*
X300375Y111311D01*
X300198Y111903D01*
X299961Y112554D01*
X299665Y113265D01*
X299280Y113946D01*
Y113975D01*
X299221Y114034D01*
X299162Y114153D01*
X299043Y114271D01*
X298925Y114478D01*
X298747Y114686D01*
X298540Y114952D01*
X298303Y115248D01*
X298037Y115603D01*
X297711Y115958D01*
X297356Y116373D01*
X296942Y116817D01*
X296498Y117261D01*
X295994Y117764D01*
X295462Y118297D01*
X294870Y118859D01*
X294840Y118889D01*
X294751Y118978D01*
X294633Y119096D01*
X294455Y119274D01*
X294218Y119451D01*
X293982Y119688D01*
X293449Y120221D01*
X292916Y120783D01*
X292383Y121346D01*
X292146Y121582D01*
X291910Y121849D01*
X291732Y122056D01*
X291614Y122234D01*
X291584Y122293D01*
X291495Y122441D01*
X291347Y122678D01*
X291199Y123003D01*
X291051Y123358D01*
X290903Y123773D01*
X290814Y124187D01*
X290785Y124631D01*
Y124661D01*
Y124690D01*
Y124838D01*
X290814Y125105D01*
X290874Y125401D01*
X290962Y125726D01*
X291081Y126052D01*
X291258Y126378D01*
X291495Y126674D01*
X291525Y126703D01*
X291614Y126792D01*
X291791Y126910D01*
X291998Y127029D01*
X292294Y127147D01*
X292620Y127266D01*
X293005Y127354D01*
X293449Y127384D01*
X293656D01*
X293893Y127354D01*
X294159Y127295D01*
X294485Y127206D01*
X294810Y127058D01*
X295136Y126881D01*
X295432Y126644D01*
X295462Y126614D01*
X295550Y126496D01*
X295669Y126318D01*
X295787Y126052D01*
X295935Y125726D01*
X296054Y125282D01*
X296172Y124779D01*
X296231Y124187D01*
X300138Y124572D01*
Y124602D01*
X300109Y124720D01*
Y124868D01*
X300050Y125105D01*
X300020Y125371D01*
X299931Y125667D01*
X299842Y125993D01*
X299754Y126378D01*
X299458Y127118D01*
X299102Y127887D01*
X298866Y128272D01*
X298599Y128627D01*
X298303Y128923D01*
X297978Y129219D01*
X297948Y129249D01*
X297889Y129278D01*
X297800Y129338D01*
X297652Y129456D01*
X297474Y129545D01*
X297238Y129663D01*
X297001Y129811D01*
X296705Y129930D01*
X296379Y130078D01*
X296024Y130196D01*
X295254Y130433D01*
X294337Y130581D01*
X293863Y130610D01*
X293360Y130640D01*
D02*
G37*
G36*
X261510D02*
X261214D01*
X261007Y130610D01*
X260741Y130581D01*
X260445Y130551D01*
X260119Y130492D01*
X259764Y130433D01*
X258994Y130226D01*
X258225Y129930D01*
X257810Y129752D01*
X257455Y129545D01*
X257070Y129278D01*
X256745Y128982D01*
X256715Y128953D01*
X256656Y128923D01*
X256597Y128805D01*
X256478Y128686D01*
X256330Y128538D01*
X256182Y128331D01*
X256034Y128124D01*
X255857Y127858D01*
X255561Y127266D01*
X255265Y126585D01*
X255146Y126200D01*
X255087Y125786D01*
X255028Y125342D01*
X254998Y124898D01*
Y124661D01*
X255028Y124394D01*
X255058Y124069D01*
X255117Y123654D01*
X255206Y123210D01*
X255324Y122737D01*
X255502Y122263D01*
X255531Y122204D01*
X255590Y122056D01*
X255709Y121790D01*
X255886Y121464D01*
X256094Y121079D01*
X256360Y120635D01*
X256686Y120162D01*
X257070Y119658D01*
X257100Y119629D01*
X257218Y119481D01*
X257396Y119274D01*
X257662Y118978D01*
X258018Y118622D01*
X258462Y118149D01*
X258994Y117646D01*
X259646Y117024D01*
X259675Y116994D01*
X259734Y116965D01*
X259823Y116876D01*
X259942Y116758D01*
X260267Y116462D01*
X260652Y116106D01*
X261037Y115722D01*
X261422Y115337D01*
X261777Y115011D01*
X261895Y114863D01*
X262014Y114745D01*
X262043Y114715D01*
X262102Y114656D01*
X262191Y114538D01*
X262310Y114390D01*
X262576Y114064D01*
X262813Y113679D01*
X254998D01*
Y110038D01*
X268762D01*
Y110127D01*
X268733Y110246D01*
X268703Y110394D01*
X268674Y110571D01*
X268644Y110778D01*
X268526Y111311D01*
X268348Y111903D01*
X268111Y112554D01*
X267815Y113265D01*
X267430Y113946D01*
Y113975D01*
X267371Y114034D01*
X267312Y114153D01*
X267194Y114271D01*
X267075Y114478D01*
X266898Y114686D01*
X266690Y114952D01*
X266454Y115248D01*
X266187Y115603D01*
X265862Y115958D01*
X265506Y116373D01*
X265092Y116817D01*
X264648Y117261D01*
X264145Y117764D01*
X263612Y118297D01*
X263020Y118859D01*
X262990Y118889D01*
X262902Y118978D01*
X262783Y119096D01*
X262606Y119274D01*
X262369Y119451D01*
X262132Y119688D01*
X261599Y120221D01*
X261066Y120783D01*
X260534Y121346D01*
X260297Y121582D01*
X260060Y121849D01*
X259882Y122056D01*
X259764Y122234D01*
X259734Y122293D01*
X259646Y122441D01*
X259498Y122678D01*
X259350Y123003D01*
X259202Y123358D01*
X259054Y123773D01*
X258965Y124187D01*
X258935Y124631D01*
Y124661D01*
Y124690D01*
Y124838D01*
X258965Y125105D01*
X259024Y125401D01*
X259113Y125726D01*
X259231Y126052D01*
X259409Y126378D01*
X259646Y126674D01*
X259675Y126703D01*
X259764Y126792D01*
X259942Y126910D01*
X260149Y127029D01*
X260445Y127147D01*
X260770Y127266D01*
X261155Y127354D01*
X261599Y127384D01*
X261806D01*
X262043Y127354D01*
X262310Y127295D01*
X262635Y127206D01*
X262961Y127058D01*
X263286Y126881D01*
X263582Y126644D01*
X263612Y126614D01*
X263701Y126496D01*
X263819Y126318D01*
X263938Y126052D01*
X264086Y125726D01*
X264204Y125282D01*
X264322Y124779D01*
X264382Y124187D01*
X268289Y124572D01*
Y124602D01*
X268259Y124720D01*
Y124868D01*
X268200Y125105D01*
X268170Y125371D01*
X268082Y125667D01*
X267993Y125993D01*
X267904Y126378D01*
X267608Y127118D01*
X267253Y127887D01*
X267016Y128272D01*
X266750Y128627D01*
X266454Y128923D01*
X266128Y129219D01*
X266098Y129249D01*
X266039Y129278D01*
X265950Y129338D01*
X265802Y129456D01*
X265625Y129545D01*
X265388Y129663D01*
X265151Y129811D01*
X264855Y129930D01*
X264530Y130078D01*
X264174Y130196D01*
X263405Y130433D01*
X262487Y130581D01*
X262014Y130610D01*
X261510Y130640D01*
D02*
G37*
G36*
X249789Y130255D02*
X239399D01*
Y126585D01*
X246829D01*
X247450Y123092D01*
X247421D01*
X247391Y123122D01*
X247214Y123210D01*
X246947Y123299D01*
X246622Y123447D01*
X246207Y123566D01*
X245763Y123654D01*
X245260Y123743D01*
X244757Y123773D01*
X244490D01*
X244313Y123743D01*
X244106Y123714D01*
X243839Y123684D01*
X243543Y123625D01*
X243218Y123536D01*
X242537Y123299D01*
X242152Y123151D01*
X241797Y122974D01*
X241412Y122737D01*
X241027Y122470D01*
X240672Y122174D01*
X240317Y121849D01*
X240287Y121819D01*
X240228Y121760D01*
X240139Y121642D01*
X240021Y121494D01*
X239902Y121316D01*
X239725Y121079D01*
X239577Y120813D01*
X239399Y120517D01*
X239222Y120191D01*
X239074Y119806D01*
X238896Y119392D01*
X238778Y118978D01*
X238659Y118504D01*
X238570Y118001D01*
X238511Y117468D01*
X238482Y116906D01*
Y116669D01*
X238511Y116491D01*
Y116254D01*
X238570Y115988D01*
X238600Y115692D01*
X238659Y115396D01*
X238837Y114686D01*
X239103Y113916D01*
X239281Y113502D01*
X239458Y113117D01*
X239695Y112732D01*
X239962Y112347D01*
X239991Y112318D01*
X240050Y112229D01*
X240169Y112110D01*
X240317Y111933D01*
X240524Y111726D01*
X240790Y111489D01*
X241086Y111252D01*
X241412Y111015D01*
X241797Y110749D01*
X242211Y110512D01*
X242655Y110275D01*
X243158Y110068D01*
X243691Y109890D01*
X244254Y109772D01*
X244875Y109683D01*
X245526Y109654D01*
X245793D01*
X246000Y109683D01*
X246237Y109713D01*
X246533Y109742D01*
X246829Y109772D01*
X247184Y109831D01*
X247894Y110009D01*
X248694Y110305D01*
X249078Y110453D01*
X249463Y110660D01*
X249818Y110897D01*
X250174Y111163D01*
X250203Y111193D01*
X250262Y111222D01*
X250351Y111311D01*
X250470Y111430D01*
X250588Y111607D01*
X250766Y111785D01*
X250914Y111992D01*
X251091Y112229D01*
X251298Y112525D01*
X251476Y112821D01*
X251802Y113531D01*
X252098Y114330D01*
X252186Y114774D01*
X252275Y115248D01*
X248368Y115662D01*
Y115603D01*
X248338Y115455D01*
X248279Y115189D01*
X248190Y114893D01*
X248072Y114567D01*
X247894Y114212D01*
X247658Y113886D01*
X247391Y113561D01*
X247362Y113531D01*
X247243Y113442D01*
X247066Y113324D01*
X246829Y113176D01*
X246562Y113028D01*
X246237Y112910D01*
X245852Y112821D01*
X245467Y112791D01*
X245408D01*
X245260Y112821D01*
X245023Y112850D01*
X244727Y112910D01*
X244402Y113028D01*
X244046Y113206D01*
X243691Y113472D01*
X243366Y113798D01*
X243336Y113857D01*
X243218Y113975D01*
X243099Y114212D01*
X242922Y114567D01*
X242774Y114982D01*
X242626Y115485D01*
X242537Y116106D01*
X242507Y116817D01*
Y116846D01*
Y116906D01*
Y116994D01*
Y117142D01*
X242537Y117468D01*
X242626Y117882D01*
X242714Y118356D01*
X242862Y118830D01*
X243070Y119274D01*
X243366Y119658D01*
X243395Y119688D01*
X243514Y119806D01*
X243721Y119954D01*
X243958Y120162D01*
X244283Y120339D01*
X244668Y120487D01*
X245112Y120606D01*
X245586Y120635D01*
X245763D01*
X245882Y120606D01*
X246178Y120546D01*
X246592Y120458D01*
X247066Y120280D01*
X247569Y120014D01*
X247835Y119836D01*
X248102Y119629D01*
X248368Y119392D01*
X248634Y119126D01*
X251802Y119570D01*
X249789Y130255D01*
D02*
G37*
G36*
X357030Y130640D02*
X353833D01*
Y110038D01*
X357770D01*
Y124868D01*
X357799Y124838D01*
X357858Y124779D01*
X357977Y124690D01*
X358154Y124542D01*
X358362Y124365D01*
X358598Y124187D01*
X358894Y123980D01*
X359220Y123743D01*
X359575Y123506D01*
X359960Y123270D01*
X360374Y123003D01*
X360818Y122766D01*
X361766Y122322D01*
X362831Y121908D01*
Y125460D01*
X362802D01*
X362772Y125490D01*
X362683Y125519D01*
X362565Y125549D01*
X362269Y125697D01*
X361854Y125874D01*
X361351Y126111D01*
X360789Y126437D01*
X360167Y126851D01*
X359516Y127325D01*
X359486Y127354D01*
X359427Y127384D01*
X359338Y127473D01*
X359220Y127591D01*
X358894Y127887D01*
X358539Y128272D01*
X358125Y128746D01*
X357710Y129338D01*
X357326Y129959D01*
X357030Y130640D01*
D02*
G37*
G36*
X220041D02*
X216844D01*
Y110038D01*
X220781D01*
Y124868D01*
X220810Y124838D01*
X220870Y124779D01*
X220988Y124690D01*
X221166Y124542D01*
X221373Y124365D01*
X221610Y124187D01*
X221906Y123980D01*
X222231Y123743D01*
X222586Y123506D01*
X222971Y123270D01*
X223386Y123003D01*
X223830Y122766D01*
X224777Y122322D01*
X225842Y121908D01*
Y125460D01*
X225813D01*
X225783Y125490D01*
X225694Y125519D01*
X225576Y125549D01*
X225280Y125697D01*
X224866Y125874D01*
X224362Y126111D01*
X223800Y126437D01*
X223178Y126851D01*
X222527Y127325D01*
X222498Y127354D01*
X222438Y127384D01*
X222350Y127473D01*
X222231Y127591D01*
X221906Y127887D01*
X221550Y128272D01*
X221136Y128746D01*
X220722Y129338D01*
X220337Y129959D01*
X220041Y130640D01*
D02*
G37*
G36*
X547683Y130522D02*
X541497D01*
X537826Y116521D01*
X534186Y130522D01*
X527970D01*
Y110038D01*
X531788D01*
X531818Y126141D01*
X535843Y110038D01*
X539839D01*
X543865Y126141D01*
Y110038D01*
X547683D01*
Y130522D01*
D02*
G37*
G36*
X236025Y119451D02*
X228299D01*
Y115514D01*
X236025D01*
Y119451D01*
D02*
G37*
G36*
X388850Y124898D02*
X384735D01*
X381923Y117290D01*
X381124Y114774D01*
X381094Y114804D01*
X381065Y114922D01*
X381006Y115100D01*
X380946Y115278D01*
X380798Y115722D01*
X380739Y115899D01*
X380710Y116047D01*
Y116077D01*
X380680Y116166D01*
X380650Y116284D01*
X380591Y116432D01*
X380473Y116846D01*
X380295Y117290D01*
X377454Y124898D01*
X373428D01*
X379318Y110038D01*
X382870D01*
X388850Y124898D01*
D02*
G37*
G36*
X567426Y130906D02*
X567071D01*
X566805Y130877D01*
X566479Y130847D01*
X566124Y130788D01*
X565710Y130729D01*
X565266Y130640D01*
X564792Y130522D01*
X564289Y130374D01*
X563786Y130196D01*
X563253Y129959D01*
X562750Y129722D01*
X562276Y129426D01*
X561773Y129071D01*
X561329Y128686D01*
X561299D01*
X561270Y128627D01*
X561181Y128538D01*
X561092Y128450D01*
X560974Y128302D01*
X560855Y128124D01*
X560530Y127710D01*
X560204Y127177D01*
X559849Y126526D01*
X559523Y125786D01*
X559227Y124927D01*
X563312Y123950D01*
Y123980D01*
X563342Y124010D01*
Y124098D01*
X563401Y124217D01*
X563490Y124483D01*
X563638Y124838D01*
X563845Y125253D01*
X564111Y125667D01*
X564466Y126082D01*
X564851Y126437D01*
X564910Y126466D01*
X565058Y126585D01*
X565295Y126733D01*
X565621Y126910D01*
X566035Y127088D01*
X566509Y127236D01*
X567042Y127354D01*
X567634Y127384D01*
X567841D01*
X568018Y127354D01*
X568196Y127325D01*
X568433Y127295D01*
X568936Y127177D01*
X569528Y126970D01*
X570150Y126674D01*
X570475Y126496D01*
X570771Y126289D01*
X571067Y126022D01*
X571334Y125726D01*
Y125697D01*
X571393Y125638D01*
X571452Y125549D01*
X571541Y125401D01*
X571659Y125223D01*
X571778Y125016D01*
X571896Y124750D01*
X572014Y124454D01*
X572162Y124098D01*
X572281Y123714D01*
X572399Y123270D01*
X572518Y122796D01*
X572606Y122263D01*
X572666Y121701D01*
X572695Y121079D01*
X572725Y120398D01*
Y120369D01*
Y120221D01*
Y120014D01*
X572695Y119777D01*
Y119451D01*
X572636Y119066D01*
X572606Y118682D01*
X572547Y118238D01*
X572370Y117320D01*
X572133Y116402D01*
X571985Y115958D01*
X571778Y115544D01*
X571570Y115159D01*
X571334Y114834D01*
X571304Y114804D01*
X571274Y114774D01*
X571186Y114686D01*
X571067Y114567D01*
X570771Y114330D01*
X570357Y114034D01*
X569854Y113709D01*
X569232Y113472D01*
X568522Y113265D01*
X568137Y113235D01*
X567722Y113206D01*
X567574D01*
X567456Y113235D01*
X567130Y113265D01*
X566746Y113324D01*
X566331Y113472D01*
X565858Y113650D01*
X565384Y113886D01*
X564910Y114242D01*
X564851Y114301D01*
X564703Y114449D01*
X564496Y114686D01*
X564259Y115041D01*
X563963Y115514D01*
X563697Y116077D01*
X563430Y116758D01*
X563194Y117557D01*
X559168Y116314D01*
Y116284D01*
X559198Y116166D01*
X559257Y115988D01*
X559346Y115751D01*
X559464Y115485D01*
X559582Y115159D01*
X559730Y114804D01*
X559908Y114419D01*
X560322Y113620D01*
X560855Y112791D01*
X561506Y111992D01*
X561862Y111637D01*
X562246Y111311D01*
X562276Y111282D01*
X562335Y111252D01*
X562454Y111163D01*
X562631Y111045D01*
X562838Y110926D01*
X563105Y110808D01*
X563401Y110660D01*
X563726Y110512D01*
X564111Y110334D01*
X564526Y110186D01*
X564970Y110068D01*
X565443Y109950D01*
X565946Y109831D01*
X566509Y109742D01*
X567071Y109713D01*
X567693Y109683D01*
X567870D01*
X568078Y109713D01*
X568374Y109742D01*
X568699Y109772D01*
X569114Y109831D01*
X569558Y109920D01*
X570061Y110038D01*
X570564Y110186D01*
X571097Y110364D01*
X571659Y110601D01*
X572222Y110867D01*
X572784Y111163D01*
X573346Y111548D01*
X573879Y111962D01*
X574382Y112466D01*
X574412Y112495D01*
X574501Y112584D01*
X574619Y112762D01*
X574797Y112969D01*
X574974Y113265D01*
X575211Y113590D01*
X575448Y114005D01*
X575685Y114478D01*
X575922Y114982D01*
X576158Y115544D01*
X576395Y116195D01*
X576573Y116876D01*
X576750Y117586D01*
X576869Y118386D01*
X576958Y119214D01*
X576987Y120102D01*
Y120339D01*
X576958Y120606D01*
Y120961D01*
X576898Y121375D01*
X576839Y121878D01*
X576780Y122411D01*
X576662Y123033D01*
X576514Y123654D01*
X576336Y124306D01*
X576129Y124957D01*
X575862Y125638D01*
X575566Y126289D01*
X575211Y126910D01*
X574826Y127502D01*
X574353Y128065D01*
X574323Y128094D01*
X574234Y128183D01*
X574086Y128331D01*
X573879Y128509D01*
X573613Y128716D01*
X573287Y128953D01*
X572932Y129219D01*
X572488Y129486D01*
X572014Y129752D01*
X571511Y130018D01*
X570919Y130255D01*
X570327Y130462D01*
X569646Y130640D01*
X568966Y130788D01*
X568196Y130877D01*
X567426Y130906D01*
D02*
G37*
G36*
X488898Y124898D02*
X484961D01*
Y118060D01*
Y118030D01*
Y117912D01*
Y117764D01*
Y117557D01*
Y117320D01*
Y117054D01*
X484931Y116432D01*
X484902Y115751D01*
X484872Y115130D01*
X484842Y114863D01*
X484813Y114597D01*
X484783Y114390D01*
X484754Y114242D01*
Y114212D01*
X484724Y114123D01*
X484665Y114005D01*
X484576Y113827D01*
X484487Y113650D01*
X484339Y113472D01*
X484191Y113294D01*
X483984Y113117D01*
X483954Y113087D01*
X483866Y113058D01*
X483747Y112998D01*
X483570Y112939D01*
X483362Y112850D01*
X483096Y112791D01*
X482830Y112762D01*
X482504Y112732D01*
X482326D01*
X482149Y112762D01*
X481912Y112791D01*
X481616Y112850D01*
X481320Y112969D01*
X480994Y113087D01*
X480698Y113265D01*
X480669Y113294D01*
X480580Y113354D01*
X480432Y113472D01*
X480254Y113650D01*
X480077Y113857D01*
X479899Y114064D01*
X479722Y114330D01*
X479603Y114626D01*
Y114656D01*
X479544Y114804D01*
Y114922D01*
X479514Y115070D01*
X479485Y115218D01*
X479455Y115426D01*
X479426Y115692D01*
X479396Y115958D01*
X479366Y116284D01*
Y116669D01*
X479337Y117083D01*
X479307Y117557D01*
Y118060D01*
Y118622D01*
Y124898D01*
X475370D01*
Y110038D01*
X479011D01*
Y112258D01*
X479041Y112199D01*
X479159Y112051D01*
X479337Y111844D01*
X479603Y111578D01*
X479899Y111252D01*
X480284Y110956D01*
X480698Y110630D01*
X481172Y110364D01*
X481231Y110334D01*
X481409Y110275D01*
X481675Y110157D01*
X482030Y110038D01*
X482445Y109920D01*
X482918Y109802D01*
X483422Y109742D01*
X483954Y109713D01*
X484221D01*
X484487Y109742D01*
X484842Y109802D01*
X485286Y109861D01*
X485730Y109979D01*
X486204Y110157D01*
X486648Y110364D01*
X486707Y110394D01*
X486826Y110482D01*
X487062Y110630D01*
X487299Y110838D01*
X487595Y111104D01*
X487862Y111400D01*
X488128Y111785D01*
X488365Y112199D01*
X488394Y112258D01*
X488454Y112406D01*
X488542Y112673D01*
X488631Y113058D01*
X488720Y113531D01*
X488809Y114094D01*
X488868Y114745D01*
X488898Y115485D01*
Y124898D01*
D02*
G37*
G36*
X457729Y125223D02*
X457403D01*
X457166Y125194D01*
X456900Y125164D01*
X456574Y125105D01*
X456219Y125046D01*
X455834Y124957D01*
X455420Y124838D01*
X455006Y124690D01*
X454562Y124513D01*
X454118Y124276D01*
X453703Y124039D01*
X453289Y123743D01*
X452874Y123388D01*
X452519Y123003D01*
X452490Y122974D01*
X452430Y122914D01*
X452342Y122766D01*
X452223Y122589D01*
X452075Y122352D01*
X451927Y122086D01*
X451750Y121730D01*
X451572Y121346D01*
X451394Y120902D01*
X451217Y120398D01*
X451069Y119866D01*
X450921Y119244D01*
X450802Y118593D01*
X450714Y117882D01*
X450654Y117142D01*
Y116314D01*
X460482D01*
Y116284D01*
Y116225D01*
Y116136D01*
X460452Y116018D01*
X460422Y115722D01*
X460363Y115307D01*
X460245Y114893D01*
X460067Y114419D01*
X459860Y113975D01*
X459564Y113590D01*
X459534Y113561D01*
X459386Y113442D01*
X459209Y113294D01*
X458942Y113117D01*
X458617Y112939D01*
X458202Y112791D01*
X457758Y112673D01*
X457285Y112643D01*
X457137D01*
X456959Y112673D01*
X456752Y112702D01*
X456515Y112762D01*
X456249Y112850D01*
X455982Y112969D01*
X455746Y113146D01*
X455716Y113176D01*
X455627Y113235D01*
X455509Y113354D01*
X455390Y113531D01*
X455213Y113768D01*
X455065Y114034D01*
X454917Y114390D01*
X454769Y114774D01*
X450862Y114123D01*
Y114094D01*
X450891Y114034D01*
X450950Y113916D01*
X451010Y113768D01*
X451098Y113590D01*
X451187Y113383D01*
X451454Y112910D01*
X451779Y112377D01*
X452194Y111814D01*
X452697Y111311D01*
X453259Y110838D01*
X453289D01*
X453318Y110778D01*
X453437Y110749D01*
X453555Y110660D01*
X453703Y110571D01*
X453910Y110482D01*
X454118Y110394D01*
X454384Y110275D01*
X454976Y110068D01*
X455657Y109890D01*
X456456Y109772D01*
X457314Y109713D01*
X457492D01*
X457670Y109742D01*
X457936D01*
X458262Y109802D01*
X458646Y109861D01*
X459061Y109920D01*
X459475Y110038D01*
X459949Y110157D01*
X460422Y110334D01*
X460896Y110542D01*
X461370Y110778D01*
X461843Y111074D01*
X462287Y111400D01*
X462672Y111785D01*
X463057Y112229D01*
X463086Y112258D01*
X463116Y112318D01*
X463175Y112436D01*
X463294Y112584D01*
X463382Y112791D01*
X463501Y113028D01*
X463649Y113294D01*
X463767Y113620D01*
X463915Y113975D01*
X464034Y114360D01*
X464182Y114774D01*
X464270Y115248D01*
X464359Y115722D01*
X464448Y116225D01*
X464478Y116787D01*
X464507Y117350D01*
Y117705D01*
X464478Y117971D01*
X464448Y118267D01*
X464418Y118622D01*
X464359Y119007D01*
X464270Y119451D01*
X464034Y120369D01*
X463886Y120842D01*
X463708Y121346D01*
X463471Y121819D01*
X463205Y122263D01*
X462909Y122707D01*
X462583Y123122D01*
X462554Y123151D01*
X462494Y123210D01*
X462376Y123329D01*
X462228Y123447D01*
X462050Y123595D01*
X461814Y123773D01*
X461547Y123980D01*
X461251Y124187D01*
X460926Y124365D01*
X460541Y124572D01*
X460156Y124750D01*
X459712Y124898D01*
X459268Y125016D01*
X458765Y125134D01*
X458262Y125194D01*
X457729Y125223D01*
D02*
G37*
G36*
X397197D02*
X396871D01*
X396634Y125194D01*
X396368Y125164D01*
X396042Y125105D01*
X395687Y125046D01*
X395302Y124957D01*
X394888Y124838D01*
X394474Y124690D01*
X394030Y124513D01*
X393586Y124276D01*
X393171Y124039D01*
X392757Y123743D01*
X392342Y123388D01*
X391987Y123003D01*
X391958Y122974D01*
X391898Y122914D01*
X391810Y122766D01*
X391691Y122589D01*
X391543Y122352D01*
X391395Y122086D01*
X391218Y121730D01*
X391040Y121346D01*
X390862Y120902D01*
X390685Y120398D01*
X390537Y119866D01*
X390389Y119244D01*
X390270Y118593D01*
X390182Y117882D01*
X390122Y117142D01*
Y116314D01*
X399950D01*
Y116284D01*
Y116225D01*
Y116136D01*
X399920Y116018D01*
X399890Y115722D01*
X399831Y115307D01*
X399713Y114893D01*
X399535Y114419D01*
X399328Y113975D01*
X399032Y113590D01*
X399002Y113561D01*
X398854Y113442D01*
X398677Y113294D01*
X398410Y113117D01*
X398085Y112939D01*
X397670Y112791D01*
X397226Y112673D01*
X396753Y112643D01*
X396605D01*
X396427Y112673D01*
X396220Y112702D01*
X395983Y112762D01*
X395717Y112850D01*
X395450Y112969D01*
X395214Y113146D01*
X395184Y113176D01*
X395095Y113235D01*
X394977Y113354D01*
X394858Y113531D01*
X394681Y113768D01*
X394533Y114034D01*
X394385Y114390D01*
X394237Y114774D01*
X390330Y114123D01*
Y114094D01*
X390359Y114034D01*
X390418Y113916D01*
X390478Y113768D01*
X390566Y113590D01*
X390655Y113383D01*
X390922Y112910D01*
X391247Y112377D01*
X391662Y111814D01*
X392165Y111311D01*
X392727Y110838D01*
X392757D01*
X392786Y110778D01*
X392905Y110749D01*
X393023Y110660D01*
X393171Y110571D01*
X393378Y110482D01*
X393586Y110394D01*
X393852Y110275D01*
X394444Y110068D01*
X395125Y109890D01*
X395924Y109772D01*
X396782Y109713D01*
X396960D01*
X397138Y109742D01*
X397404D01*
X397730Y109802D01*
X398114Y109861D01*
X398529Y109920D01*
X398943Y110038D01*
X399417Y110157D01*
X399890Y110334D01*
X400364Y110542D01*
X400838Y110778D01*
X401311Y111074D01*
X401755Y111400D01*
X402140Y111785D01*
X402525Y112229D01*
X402554Y112258D01*
X402584Y112318D01*
X402643Y112436D01*
X402762Y112584D01*
X402850Y112791D01*
X402969Y113028D01*
X403117Y113294D01*
X403235Y113620D01*
X403383Y113975D01*
X403502Y114360D01*
X403650Y114774D01*
X403738Y115248D01*
X403827Y115722D01*
X403916Y116225D01*
X403946Y116787D01*
X403975Y117350D01*
Y117705D01*
X403946Y117971D01*
X403916Y118267D01*
X403886Y118622D01*
X403827Y119007D01*
X403738Y119451D01*
X403502Y120369D01*
X403354Y120842D01*
X403176Y121346D01*
X402939Y121819D01*
X402673Y122263D01*
X402377Y122707D01*
X402051Y123122D01*
X402022Y123151D01*
X401962Y123210D01*
X401844Y123329D01*
X401696Y123447D01*
X401518Y123595D01*
X401282Y123773D01*
X401015Y123980D01*
X400719Y124187D01*
X400394Y124365D01*
X400009Y124572D01*
X399624Y124750D01*
X399180Y124898D01*
X398736Y125016D01*
X398233Y125134D01*
X397730Y125194D01*
X397197Y125223D01*
D02*
G37*
G36*
X616000Y130522D02*
X607002D01*
X606469Y130492D01*
X605877Y130462D01*
X605285Y130433D01*
X604722Y130374D01*
X604219Y130314D01*
X604160D01*
X604012Y130285D01*
X603805Y130226D01*
X603509Y130137D01*
X603183Y130018D01*
X602828Y129870D01*
X602443Y129693D01*
X602088Y129456D01*
X602058Y129426D01*
X601940Y129338D01*
X601762Y129190D01*
X601526Y129012D01*
X601289Y128746D01*
X601022Y128450D01*
X600756Y128124D01*
X600519Y127739D01*
X600490Y127680D01*
X600430Y127562D01*
X600312Y127325D01*
X600194Y127029D01*
X600075Y126674D01*
X599957Y126289D01*
X599898Y125815D01*
X599868Y125342D01*
Y125312D01*
Y125282D01*
Y125105D01*
X599898Y124838D01*
X599957Y124483D01*
X600075Y124069D01*
X600194Y123625D01*
X600401Y123181D01*
X600667Y122707D01*
X600697Y122648D01*
X600815Y122500D01*
X600993Y122293D01*
X601200Y122026D01*
X601496Y121760D01*
X601851Y121434D01*
X602266Y121168D01*
X602739Y120902D01*
X602710D01*
X602650Y120872D01*
X602562Y120842D01*
X602443Y120813D01*
X602088Y120665D01*
X601674Y120458D01*
X601230Y120221D01*
X600726Y119895D01*
X600282Y119510D01*
X599868Y119037D01*
X599838Y118978D01*
X599720Y118800D01*
X599542Y118534D01*
X599365Y118178D01*
X599187Y117705D01*
X599010Y117202D01*
X598891Y116610D01*
X598862Y115958D01*
Y115722D01*
X598891Y115455D01*
X598950Y115100D01*
X599010Y114686D01*
X599128Y114212D01*
X599306Y113738D01*
X599513Y113235D01*
X599542Y113176D01*
X599631Y113028D01*
X599779Y112791D01*
X599986Y112495D01*
X600223Y112140D01*
X600549Y111814D01*
X600874Y111459D01*
X601289Y111134D01*
X601348Y111104D01*
X601496Y111015D01*
X601733Y110867D01*
X602058Y110719D01*
X602473Y110542D01*
X602946Y110394D01*
X603479Y110246D01*
X604071Y110157D01*
X604190D01*
X604308Y110127D01*
X604604D01*
X604811Y110098D01*
X605374D01*
X605729Y110068D01*
X606617D01*
X607120Y110038D01*
X616000D01*
Y130522D01*
D02*
G37*
G36*
X595339D02*
X580154D01*
Y127058D01*
X591195D01*
Y122530D01*
X580924D01*
Y119066D01*
X591195D01*
Y113502D01*
X579770D01*
Y110038D01*
X595339D01*
Y130522D01*
D02*
G37*
G36*
X471345D02*
X467408D01*
Y110038D01*
X471345D01*
Y130522D01*
D02*
G37*
G36*
X423452D02*
X414217D01*
X413950Y130492D01*
X413625D01*
X413299Y130462D01*
X412914D01*
X412145Y130374D01*
X411346Y130285D01*
X410606Y130137D01*
X410280Y130048D01*
X409984Y129959D01*
X409954D01*
X409925Y129930D01*
X409747Y129841D01*
X409481Y129693D01*
X409126Y129515D01*
X408741Y129219D01*
X408356Y128894D01*
X407971Y128479D01*
X407616Y127976D01*
Y127946D01*
X407586Y127917D01*
X407527Y127828D01*
X407468Y127739D01*
X407320Y127443D01*
X407142Y127058D01*
X406994Y126585D01*
X406846Y126052D01*
X406728Y125430D01*
X406698Y124779D01*
Y124750D01*
Y124690D01*
Y124542D01*
X406728Y124394D01*
Y124187D01*
X406758Y123980D01*
X406876Y123447D01*
X407024Y122826D01*
X407261Y122204D01*
X407616Y121553D01*
X407823Y121257D01*
X408060Y120961D01*
X408090Y120931D01*
X408119Y120902D01*
X408208Y120813D01*
X408326Y120724D01*
X408445Y120606D01*
X408622Y120458D01*
X408830Y120310D01*
X409066Y120162D01*
X409333Y119984D01*
X409658Y119836D01*
X409984Y119688D01*
X410339Y119540D01*
X410754Y119392D01*
X411168Y119274D01*
X411612Y119155D01*
X412115Y119066D01*
X412086D01*
X412056Y119037D01*
X411878Y118918D01*
X411642Y118770D01*
X411346Y118563D01*
X410990Y118297D01*
X410635Y118030D01*
X410250Y117705D01*
X409925Y117350D01*
X409895Y117320D01*
X409747Y117172D01*
X409570Y116935D01*
X409303Y116580D01*
X408948Y116136D01*
X408770Y115840D01*
X408563Y115544D01*
X408326Y115218D01*
X408090Y114863D01*
X407823Y114449D01*
X407557Y114034D01*
X405041Y110038D01*
X410014D01*
X412974Y114478D01*
X413003Y114508D01*
X413033Y114597D01*
X413122Y114715D01*
X413240Y114863D01*
X413358Y115041D01*
X413506Y115278D01*
X413832Y115751D01*
X414217Y116284D01*
X414572Y116758D01*
X414898Y117202D01*
X415046Y117350D01*
X415164Y117498D01*
X415194Y117527D01*
X415253Y117586D01*
X415371Y117705D01*
X415519Y117853D01*
X415726Y117971D01*
X415934Y118119D01*
X416170Y118238D01*
X416407Y118356D01*
X416437D01*
X416526Y118386D01*
X416674Y118445D01*
X416910Y118474D01*
X417206Y118534D01*
X417562Y118563D01*
X417976Y118593D01*
X419308D01*
Y110038D01*
X423452D01*
Y130522D01*
D02*
G37*
G36*
X347114Y113975D02*
X343177D01*
Y110038D01*
X347114D01*
Y113975D01*
D02*
G37*
G36*
X517077Y125223D02*
X516751D01*
X516514Y125194D01*
X516218Y125164D01*
X515893Y125105D01*
X515508Y125046D01*
X515123Y124957D01*
X514679Y124838D01*
X514235Y124690D01*
X513791Y124513D01*
X513318Y124306D01*
X512844Y124039D01*
X512400Y123743D01*
X511956Y123418D01*
X511542Y123033D01*
X511512Y123003D01*
X511453Y122944D01*
X511334Y122796D01*
X511216Y122648D01*
X511038Y122411D01*
X510861Y122174D01*
X510654Y121849D01*
X510446Y121523D01*
X510269Y121138D01*
X510062Y120724D01*
X509884Y120250D01*
X509706Y119777D01*
X509588Y119244D01*
X509470Y118711D01*
X509410Y118119D01*
X509381Y117498D01*
Y117172D01*
X509410Y116935D01*
X509440Y116639D01*
X509499Y116314D01*
X509558Y115929D01*
X509647Y115544D01*
X509766Y115100D01*
X509914Y114656D01*
X510091Y114182D01*
X510298Y113709D01*
X510565Y113235D01*
X510861Y112791D01*
X511186Y112347D01*
X511571Y111903D01*
X511601Y111874D01*
X511660Y111814D01*
X511778Y111696D01*
X511956Y111548D01*
X512163Y111400D01*
X512430Y111222D01*
X512726Y111015D01*
X513051Y110808D01*
X513436Y110601D01*
X513850Y110394D01*
X514294Y110216D01*
X514798Y110068D01*
X515301Y109920D01*
X515863Y109802D01*
X516426Y109742D01*
X517047Y109713D01*
X517254D01*
X517402Y109742D01*
X517580D01*
X517787Y109772D01*
X518290Y109831D01*
X518912Y109950D01*
X519563Y110098D01*
X520244Y110334D01*
X520954Y110630D01*
X520984D01*
X521043Y110660D01*
X521132Y110719D01*
X521250Y110808D01*
X521576Y111015D01*
X521990Y111311D01*
X522434Y111696D01*
X522908Y112170D01*
X523352Y112702D01*
X523766Y113324D01*
Y113354D01*
X523796Y113413D01*
X523855Y113502D01*
X523914Y113650D01*
X523974Y113827D01*
X524062Y114034D01*
X524151Y114271D01*
X524240Y114538D01*
X524329Y114834D01*
X524418Y115159D01*
X524566Y115899D01*
X524684Y116758D01*
X524714Y117675D01*
Y117882D01*
X524684Y118001D01*
Y118178D01*
X524654Y118386D01*
X524595Y118889D01*
X524477Y119451D01*
X524299Y120073D01*
X524092Y120754D01*
X523766Y121434D01*
Y121464D01*
X523707Y121523D01*
X523678Y121612D01*
X523589Y121730D01*
X523352Y122056D01*
X523056Y122470D01*
X522671Y122914D01*
X522198Y123388D01*
X521665Y123832D01*
X521043Y124246D01*
X521014D01*
X520954Y124276D01*
X520866Y124335D01*
X520718Y124394D01*
X520570Y124483D01*
X520362Y124542D01*
X520126Y124631D01*
X519889Y124750D01*
X519297Y124927D01*
X518616Y125075D01*
X517876Y125194D01*
X517077Y125223D01*
D02*
G37*
G36*
X496623Y130522D02*
X492686D01*
Y110038D01*
X496327D01*
Y112199D01*
X496357Y112140D01*
X496475Y111992D01*
X496682Y111755D01*
X496949Y111489D01*
X497245Y111193D01*
X497630Y110867D01*
X498044Y110571D01*
X498488Y110305D01*
X498547Y110275D01*
X498695Y110216D01*
X498962Y110127D01*
X499258Y110009D01*
X499642Y109890D01*
X500086Y109802D01*
X500530Y109742D01*
X501004Y109713D01*
X501241D01*
X501418Y109742D01*
X501655Y109772D01*
X501892Y109831D01*
X502188Y109890D01*
X502514Y109979D01*
X502839Y110068D01*
X503194Y110216D01*
X503550Y110364D01*
X503934Y110571D01*
X504290Y110808D01*
X504674Y111074D01*
X505030Y111400D01*
X505385Y111755D01*
X505414Y111785D01*
X505474Y111844D01*
X505562Y111962D01*
X505651Y112140D01*
X505799Y112347D01*
X505947Y112614D01*
X506125Y112910D01*
X506273Y113265D01*
X506450Y113650D01*
X506628Y114064D01*
X506776Y114538D01*
X506894Y115041D01*
X507013Y115603D01*
X507102Y116195D01*
X507161Y116817D01*
X507190Y117498D01*
Y117853D01*
X507161Y118119D01*
X507131Y118445D01*
X507102Y118800D01*
X507042Y119214D01*
X506983Y119629D01*
X506776Y120576D01*
X506628Y121050D01*
X506450Y121523D01*
X506243Y121997D01*
X506006Y122441D01*
X505740Y122855D01*
X505444Y123240D01*
X505414Y123270D01*
X505355Y123329D01*
X505266Y123418D01*
X505118Y123566D01*
X504941Y123714D01*
X504734Y123862D01*
X504497Y124039D01*
X504201Y124246D01*
X503905Y124424D01*
X503550Y124602D01*
X502810Y124927D01*
X502366Y125046D01*
X501922Y125134D01*
X501448Y125194D01*
X500945Y125223D01*
X500708D01*
X500530Y125194D01*
X500323Y125164D01*
X500057Y125105D01*
X499790Y125046D01*
X499465Y124957D01*
X499139Y124868D01*
X498784Y124720D01*
X498429Y124542D01*
X498074Y124365D01*
X497689Y124098D01*
X497334Y123832D01*
X496978Y123506D01*
X496623Y123151D01*
Y130522D01*
D02*
G37*
G36*
X333350Y130640D02*
X333054D01*
X332846Y130610D01*
X332610Y130581D01*
X332314Y130522D01*
X332018Y130462D01*
X331662Y130374D01*
X331278Y130255D01*
X330922Y130107D01*
X330538Y129959D01*
X330153Y129752D01*
X329768Y129486D01*
X329383Y129219D01*
X329028Y128894D01*
X328702Y128509D01*
X328673Y128479D01*
X328614Y128390D01*
X328525Y128242D01*
X328377Y128035D01*
X328229Y127739D01*
X328051Y127384D01*
X327874Y126999D01*
X327696Y126496D01*
X327518Y125963D01*
X327311Y125342D01*
X327163Y124661D01*
X327015Y123891D01*
X326867Y123062D01*
X326778Y122174D01*
X326719Y121198D01*
X326690Y120132D01*
Y119570D01*
X326719Y119185D01*
X326749Y118711D01*
X326808Y118149D01*
X326867Y117557D01*
X326926Y116906D01*
X327045Y116225D01*
X327193Y115514D01*
X327341Y114834D01*
X327548Y114153D01*
X327755Y113472D01*
X328051Y112850D01*
X328347Y112258D01*
X328702Y111755D01*
X328732Y111726D01*
X328791Y111666D01*
X328880Y111548D01*
X328998Y111430D01*
X329176Y111282D01*
X329383Y111104D01*
X329650Y110897D01*
X329916Y110719D01*
X330242Y110512D01*
X330567Y110305D01*
X330952Y110127D01*
X331366Y109979D01*
X331810Y109861D01*
X332314Y109742D01*
X332817Y109683D01*
X333350Y109654D01*
X333468D01*
X333646Y109683D01*
X333853D01*
X334090Y109713D01*
X334386Y109772D01*
X334711Y109831D01*
X335066Y109950D01*
X335451Y110068D01*
X335836Y110216D01*
X336250Y110394D01*
X336635Y110630D01*
X337050Y110867D01*
X337434Y111193D01*
X337819Y111518D01*
X338174Y111933D01*
X338204Y111962D01*
X338263Y112051D01*
X338352Y112199D01*
X338441Y112377D01*
X338589Y112643D01*
X338737Y112969D01*
X338914Y113383D01*
X339062Y113827D01*
X339240Y114360D01*
X339418Y114952D01*
X339566Y115633D01*
X339684Y116373D01*
X339802Y117202D01*
X339891Y118119D01*
X339950Y119096D01*
X339980Y120162D01*
Y120724D01*
X339950Y121109D01*
X339921Y121582D01*
X339862Y122145D01*
X339802Y122737D01*
X339743Y123388D01*
X339625Y124069D01*
X339506Y124750D01*
X339329Y125460D01*
X339151Y126141D01*
X338914Y126792D01*
X338648Y127414D01*
X338352Y128006D01*
X337997Y128509D01*
X337967Y128538D01*
X337908Y128598D01*
X337819Y128716D01*
X337671Y128834D01*
X337523Y129012D01*
X337316Y129190D01*
X337050Y129367D01*
X336783Y129574D01*
X336458Y129782D01*
X336132Y129959D01*
X335747Y130137D01*
X335333Y130314D01*
X334889Y130433D01*
X334386Y130551D01*
X333882Y130610D01*
X333350Y130640D01*
D02*
G37*
G36*
X277554D02*
X277258D01*
X277050Y130610D01*
X276814Y130581D01*
X276518Y130522D01*
X276222Y130462D01*
X275866Y130374D01*
X275482Y130255D01*
X275126Y130107D01*
X274742Y129959D01*
X274357Y129752D01*
X273972Y129486D01*
X273587Y129219D01*
X273232Y128894D01*
X272906Y128509D01*
X272877Y128479D01*
X272818Y128390D01*
X272729Y128242D01*
X272581Y128035D01*
X272433Y127739D01*
X272255Y127384D01*
X272078Y126999D01*
X271900Y126496D01*
X271722Y125963D01*
X271515Y125342D01*
X271367Y124661D01*
X271219Y123891D01*
X271071Y123062D01*
X270982Y122174D01*
X270923Y121198D01*
X270894Y120132D01*
Y119570D01*
X270923Y119185D01*
X270953Y118711D01*
X271012Y118149D01*
X271071Y117557D01*
X271130Y116906D01*
X271249Y116225D01*
X271397Y115514D01*
X271545Y114834D01*
X271752Y114153D01*
X271959Y113472D01*
X272255Y112850D01*
X272551Y112258D01*
X272906Y111755D01*
X272936Y111726D01*
X272995Y111666D01*
X273084Y111548D01*
X273202Y111430D01*
X273380Y111282D01*
X273587Y111104D01*
X273854Y110897D01*
X274120Y110719D01*
X274446Y110512D01*
X274771Y110305D01*
X275156Y110127D01*
X275570Y109979D01*
X276014Y109861D01*
X276518Y109742D01*
X277021Y109683D01*
X277554Y109654D01*
X277672D01*
X277850Y109683D01*
X278057D01*
X278294Y109713D01*
X278590Y109772D01*
X278915Y109831D01*
X279270Y109950D01*
X279655Y110068D01*
X280040Y110216D01*
X280454Y110394D01*
X280839Y110630D01*
X281254Y110867D01*
X281638Y111193D01*
X282023Y111518D01*
X282378Y111933D01*
X282408Y111962D01*
X282467Y112051D01*
X282556Y112199D01*
X282645Y112377D01*
X282793Y112643D01*
X282941Y112969D01*
X283118Y113383D01*
X283266Y113827D01*
X283444Y114360D01*
X283622Y114952D01*
X283770Y115633D01*
X283888Y116373D01*
X284006Y117202D01*
X284095Y118119D01*
X284154Y119096D01*
X284184Y120162D01*
Y120724D01*
X284154Y121109D01*
X284125Y121582D01*
X284066Y122145D01*
X284006Y122737D01*
X283947Y123388D01*
X283829Y124069D01*
X283710Y124750D01*
X283533Y125460D01*
X283355Y126141D01*
X283118Y126792D01*
X282852Y127414D01*
X282556Y128006D01*
X282201Y128509D01*
X282171Y128538D01*
X282112Y128598D01*
X282023Y128716D01*
X281875Y128834D01*
X281727Y129012D01*
X281520Y129190D01*
X281254Y129367D01*
X280987Y129574D01*
X280662Y129782D01*
X280336Y129959D01*
X279951Y130137D01*
X279537Y130314D01*
X279093Y130433D01*
X278590Y130551D01*
X278086Y130610D01*
X277554Y130640D01*
D02*
G37*
G36*
X204323D02*
X204027D01*
X203820Y130610D01*
X203583Y130581D01*
X203287Y130522D01*
X202991Y130462D01*
X202636Y130374D01*
X202251Y130255D01*
X201896Y130107D01*
X201511Y129959D01*
X201126Y129752D01*
X200742Y129486D01*
X200357Y129219D01*
X200002Y128894D01*
X199676Y128509D01*
X199646Y128479D01*
X199587Y128390D01*
X199498Y128242D01*
X199350Y128035D01*
X199202Y127739D01*
X199025Y127384D01*
X198847Y126999D01*
X198670Y126496D01*
X198492Y125963D01*
X198285Y125342D01*
X198137Y124661D01*
X197989Y123891D01*
X197841Y123062D01*
X197752Y122174D01*
X197693Y121198D01*
X197663Y120132D01*
Y119570D01*
X197693Y119185D01*
X197722Y118711D01*
X197782Y118149D01*
X197841Y117557D01*
X197900Y116906D01*
X198018Y116225D01*
X198166Y115514D01*
X198314Y114834D01*
X198522Y114153D01*
X198729Y113472D01*
X199025Y112850D01*
X199321Y112258D01*
X199676Y111755D01*
X199706Y111726D01*
X199765Y111666D01*
X199854Y111548D01*
X199972Y111430D01*
X200150Y111282D01*
X200357Y111104D01*
X200623Y110897D01*
X200890Y110719D01*
X201215Y110512D01*
X201541Y110305D01*
X201926Y110127D01*
X202340Y109979D01*
X202784Y109861D01*
X203287Y109742D01*
X203790Y109683D01*
X204323Y109654D01*
X204442D01*
X204619Y109683D01*
X204826D01*
X205063Y109713D01*
X205359Y109772D01*
X205685Y109831D01*
X206040Y109950D01*
X206425Y110068D01*
X206810Y110216D01*
X207224Y110394D01*
X207609Y110630D01*
X208023Y110867D01*
X208408Y111193D01*
X208793Y111518D01*
X209148Y111933D01*
X209178Y111962D01*
X209237Y112051D01*
X209326Y112199D01*
X209414Y112377D01*
X209562Y112643D01*
X209710Y112969D01*
X209888Y113383D01*
X210036Y113827D01*
X210214Y114360D01*
X210391Y114952D01*
X210539Y115633D01*
X210658Y116373D01*
X210776Y117202D01*
X210865Y118119D01*
X210924Y119096D01*
X210954Y120162D01*
Y120724D01*
X210924Y121109D01*
X210894Y121582D01*
X210835Y122145D01*
X210776Y122737D01*
X210717Y123388D01*
X210598Y124069D01*
X210480Y124750D01*
X210302Y125460D01*
X210125Y126141D01*
X209888Y126792D01*
X209622Y127414D01*
X209326Y128006D01*
X208970Y128509D01*
X208941Y128538D01*
X208882Y128598D01*
X208793Y128716D01*
X208645Y128834D01*
X208497Y129012D01*
X208290Y129190D01*
X208023Y129367D01*
X207757Y129574D01*
X207431Y129782D01*
X207106Y129959D01*
X206721Y130137D01*
X206306Y130314D01*
X205862Y130433D01*
X205359Y130551D01*
X204856Y130610D01*
X204323Y130640D01*
D02*
G37*
G36*
X439051Y130877D02*
X435943D01*
Y104000D01*
X439051D01*
Y130877D01*
D02*
G37*
G36*
X314820D02*
X311712D01*
Y104000D01*
X314820D01*
Y130877D01*
D02*
G37*
%LPD*%
G36*
X457936Y122145D02*
X458232Y122086D01*
X458558Y121967D01*
X458913Y121819D01*
X459268Y121582D01*
X459594Y121257D01*
X459623Y121227D01*
X459712Y121079D01*
X459860Y120872D01*
X460008Y120576D01*
X460186Y120221D01*
X460304Y119777D01*
X460393Y119274D01*
X460422Y118711D01*
X454562D01*
Y118741D01*
Y118800D01*
Y118859D01*
X454591Y118978D01*
X454621Y119303D01*
X454680Y119658D01*
X454798Y120073D01*
X454946Y120517D01*
X455183Y120931D01*
X455450Y121286D01*
X455479Y121316D01*
X455598Y121434D01*
X455775Y121582D01*
X456012Y121760D01*
X456308Y121908D01*
X456663Y122056D01*
X457048Y122174D01*
X457492Y122204D01*
X457699D01*
X457936Y122145D01*
D02*
G37*
G36*
X397404D02*
X397700Y122086D01*
X398026Y121967D01*
X398381Y121819D01*
X398736Y121582D01*
X399062Y121257D01*
X399091Y121227D01*
X399180Y121079D01*
X399328Y120872D01*
X399476Y120576D01*
X399654Y120221D01*
X399772Y119777D01*
X399861Y119274D01*
X399890Y118711D01*
X394030D01*
Y118741D01*
Y118800D01*
Y118859D01*
X394059Y118978D01*
X394089Y119303D01*
X394148Y119658D01*
X394266Y120073D01*
X394414Y120517D01*
X394651Y120931D01*
X394918Y121286D01*
X394947Y121316D01*
X395066Y121434D01*
X395243Y121582D01*
X395480Y121760D01*
X395776Y121908D01*
X396131Y122056D01*
X396516Y122174D01*
X396960Y122204D01*
X397167D01*
X397404Y122145D01*
D02*
G37*
G36*
X611856Y122382D02*
X607890D01*
X607386Y122411D01*
X606469D01*
X606291Y122441D01*
X606114D01*
X605995Y122470D01*
X605818Y122500D01*
X605551Y122589D01*
X605285Y122678D01*
X605018Y122796D01*
X604752Y122944D01*
X604515Y123151D01*
X604486Y123181D01*
X604426Y123270D01*
X604308Y123388D01*
X604190Y123595D01*
X604101Y123832D01*
X603982Y124098D01*
X603923Y124424D01*
X603894Y124779D01*
Y124809D01*
Y124927D01*
X603923Y125105D01*
X603953Y125342D01*
X604012Y125578D01*
X604130Y125815D01*
X604249Y126082D01*
X604426Y126318D01*
X604456Y126348D01*
X604515Y126407D01*
X604663Y126526D01*
X604811Y126644D01*
X605048Y126762D01*
X605314Y126881D01*
X605640Y126970D01*
X605995Y127029D01*
X606025D01*
X606143Y127058D01*
X606469D01*
X606646Y127088D01*
X607416D01*
X607742Y127118D01*
X611856D01*
Y122382D01*
D02*
G37*
G36*
Y113502D02*
X607298D01*
X606854Y113531D01*
X606380D01*
X605906Y113561D01*
X605522Y113590D01*
X605344D01*
X605226Y113620D01*
X605196D01*
X605078Y113650D01*
X604900Y113709D01*
X604693Y113768D01*
X604456Y113886D01*
X604190Y114034D01*
X603953Y114212D01*
X603716Y114419D01*
X603686Y114449D01*
X603627Y114538D01*
X603538Y114686D01*
X603420Y114893D01*
X603302Y115130D01*
X603213Y115426D01*
X603154Y115781D01*
X603124Y116166D01*
Y116195D01*
Y116314D01*
X603154Y116491D01*
X603183Y116698D01*
X603242Y116965D01*
X603331Y117202D01*
X603450Y117468D01*
X603598Y117734D01*
X603627Y117764D01*
X603686Y117853D01*
X603775Y117971D01*
X603923Y118090D01*
X604101Y118267D01*
X604338Y118415D01*
X604604Y118563D01*
X604900Y118682D01*
X604930D01*
X605078Y118741D01*
X605314Y118770D01*
X605462Y118800D01*
X605670Y118830D01*
X605877Y118859D01*
X606143Y118889D01*
X606439Y118918D01*
X606794D01*
X607150Y118948D01*
X607564Y118978D01*
X611856D01*
Y113502D01*
D02*
G37*
G36*
X419308Y121849D02*
X415282D01*
X414690Y121878D01*
X414069Y121908D01*
X413447Y121938D01*
X413181Y121967D01*
X412944Y121997D01*
X412707Y122056D01*
X412559Y122086D01*
X412530D01*
X412441Y122145D01*
X412293Y122204D01*
X412145Y122293D01*
X411760Y122559D01*
X411582Y122737D01*
X411405Y122944D01*
X411375Y122974D01*
X411346Y123062D01*
X411257Y123181D01*
X411168Y123358D01*
X411109Y123595D01*
X411020Y123862D01*
X410990Y124158D01*
X410961Y124483D01*
Y124542D01*
Y124661D01*
X410990Y124838D01*
X411020Y125075D01*
X411109Y125342D01*
X411198Y125608D01*
X411346Y125904D01*
X411523Y126141D01*
X411553Y126170D01*
X411612Y126259D01*
X411760Y126348D01*
X411938Y126496D01*
X412145Y126644D01*
X412411Y126762D01*
X412737Y126881D01*
X413092Y126970D01*
X413122D01*
X413210Y126999D01*
X413388D01*
X413654Y127029D01*
X414306D01*
X414572Y127058D01*
X419308D01*
Y121849D01*
D02*
G37*
G36*
X517314Y121997D02*
X517580Y121967D01*
X517935Y121878D01*
X518350Y121730D01*
X518794Y121523D01*
X519238Y121227D01*
X519652Y120842D01*
X519682Y120783D01*
X519800Y120635D01*
X519978Y120339D01*
X520155Y119984D01*
X520362Y119510D01*
X520510Y118918D01*
X520629Y118238D01*
X520688Y117468D01*
Y117438D01*
Y117379D01*
Y117261D01*
X520658Y117113D01*
Y116906D01*
X520629Y116698D01*
X520570Y116225D01*
X520422Y115662D01*
X520244Y115100D01*
X520007Y114538D01*
X519652Y114064D01*
X519593Y114005D01*
X519474Y113886D01*
X519238Y113709D01*
X518912Y113502D01*
X518557Y113265D01*
X518113Y113087D01*
X517610Y112969D01*
X517047Y112910D01*
X516899D01*
X516781Y112939D01*
X516514Y112969D01*
X516159Y113058D01*
X515745Y113206D01*
X515301Y113383D01*
X514886Y113679D01*
X514472Y114064D01*
X514413Y114123D01*
X514294Y114271D01*
X514146Y114567D01*
X513939Y114922D01*
X513732Y115426D01*
X513584Y115988D01*
X513466Y116698D01*
X513406Y117468D01*
Y117498D01*
Y117557D01*
Y117675D01*
X513436Y117823D01*
Y118001D01*
X513466Y118238D01*
X513525Y118711D01*
X513673Y119244D01*
X513850Y119806D01*
X514117Y120369D01*
X514472Y120842D01*
X514531Y120902D01*
X514650Y121020D01*
X514886Y121227D01*
X515182Y121434D01*
X515567Y121642D01*
X515982Y121849D01*
X516485Y121967D01*
X517047Y122026D01*
X517195D01*
X517314Y121997D01*
D02*
G37*
G36*
X500146Y122174D02*
X500412Y122145D01*
X500708Y122056D01*
X501093Y121938D01*
X501478Y121730D01*
X501862Y121464D01*
X502247Y121079D01*
X502277Y121020D01*
X502395Y120872D01*
X502543Y120606D01*
X502691Y120250D01*
X502869Y119777D01*
X503017Y119214D01*
X503135Y118534D01*
X503165Y117764D01*
Y117734D01*
Y117675D01*
Y117527D01*
Y117379D01*
X503135Y117172D01*
Y116965D01*
X503076Y116462D01*
X503017Y115899D01*
X502898Y115307D01*
X502721Y114774D01*
X502632Y114538D01*
X502514Y114330D01*
Y114301D01*
X502454Y114271D01*
X502336Y114094D01*
X502129Y113857D01*
X501833Y113590D01*
X501448Y113294D01*
X501004Y113058D01*
X500471Y112880D01*
X500175Y112850D01*
X499879Y112821D01*
X499820D01*
X499642Y112850D01*
X499406Y112880D01*
X499080Y112969D01*
X498725Y113087D01*
X498340Y113294D01*
X497955Y113561D01*
X497570Y113946D01*
X497541Y114005D01*
X497422Y114153D01*
X497274Y114419D01*
X497097Y114804D01*
X496919Y115278D01*
X496771Y115870D01*
X496653Y116580D01*
X496623Y117379D01*
Y117409D01*
Y117498D01*
Y117616D01*
Y117794D01*
X496653Y118001D01*
X496682Y118267D01*
X496742Y118800D01*
X496860Y119422D01*
X497008Y120014D01*
X497245Y120606D01*
X497393Y120842D01*
X497570Y121079D01*
X497600Y121138D01*
X497748Y121257D01*
X497926Y121434D01*
X498192Y121642D01*
X498547Y121849D01*
X498932Y122026D01*
X499406Y122145D01*
X499909Y122204D01*
X499968D01*
X500146Y122174D01*
D02*
G37*
G36*
X333616Y127354D02*
X333764Y127325D01*
X333971Y127266D01*
X334178Y127177D01*
X334415Y127058D01*
X334622Y126910D01*
X334652Y126881D01*
X334711Y126822D01*
X334800Y126703D01*
X334918Y126555D01*
X335066Y126318D01*
X335185Y126052D01*
X335333Y125697D01*
X335451Y125282D01*
Y125253D01*
X335481Y125223D01*
Y125105D01*
X335510Y124986D01*
X335540Y124809D01*
X335570Y124602D01*
X335599Y124365D01*
X335629Y124069D01*
X335688Y123714D01*
X335718Y123358D01*
X335747Y122914D01*
X335777Y122470D01*
X335806Y121938D01*
Y121405D01*
X335836Y120783D01*
Y120132D01*
Y120102D01*
Y119984D01*
Y119777D01*
Y119540D01*
Y119244D01*
X335806Y118918D01*
Y118534D01*
X335777Y118149D01*
X335747Y117320D01*
X335688Y116491D01*
X335658Y116106D01*
X335599Y115751D01*
X335540Y115426D01*
X335481Y115130D01*
X335451Y115070D01*
X335422Y114922D01*
X335333Y114686D01*
X335244Y114419D01*
X335096Y114123D01*
X334948Y113827D01*
X334770Y113561D01*
X334593Y113354D01*
X334563Y113324D01*
X334504Y113294D01*
X334386Y113206D01*
X334238Y113146D01*
X334060Y113058D01*
X333853Y112969D01*
X333616Y112939D01*
X333350Y112910D01*
X333231D01*
X333083Y112939D01*
X332935Y112969D01*
X332728Y113028D01*
X332521Y113087D01*
X332314Y113206D01*
X332106Y113354D01*
X332077Y113383D01*
X332018Y113442D01*
X331899Y113561D01*
X331781Y113738D01*
X331662Y113946D01*
X331514Y114242D01*
X331366Y114567D01*
X331248Y114982D01*
Y115011D01*
X331218Y115041D01*
Y115159D01*
X331189Y115278D01*
X331159Y115455D01*
X331130Y115662D01*
X331070Y115899D01*
X331041Y116195D01*
X331011Y116521D01*
X330952Y116906D01*
X330922Y117320D01*
X330893Y117794D01*
X330863Y118297D01*
Y118859D01*
X330834Y119481D01*
Y120132D01*
Y120162D01*
Y120280D01*
Y120487D01*
Y120724D01*
Y121020D01*
X330863Y121346D01*
Y121730D01*
X330893Y122115D01*
X330922Y122944D01*
X330982Y123743D01*
X331041Y124128D01*
X331100Y124513D01*
X331159Y124838D01*
X331218Y125105D01*
Y125134D01*
X331248Y125164D01*
X331278Y125312D01*
X331366Y125549D01*
X331455Y125845D01*
X331603Y126141D01*
X331751Y126437D01*
X331929Y126703D01*
X332106Y126910D01*
X332136Y126940D01*
X332195Y126999D01*
X332314Y127058D01*
X332462Y127147D01*
X332639Y127236D01*
X332846Y127325D01*
X333083Y127354D01*
X333350Y127384D01*
X333468D01*
X333616Y127354D01*
D02*
G37*
G36*
X277820D02*
X277968Y127325D01*
X278175Y127266D01*
X278382Y127177D01*
X278619Y127058D01*
X278826Y126910D01*
X278856Y126881D01*
X278915Y126822D01*
X279004Y126703D01*
X279122Y126555D01*
X279270Y126318D01*
X279389Y126052D01*
X279537Y125697D01*
X279655Y125282D01*
Y125253D01*
X279685Y125223D01*
Y125105D01*
X279714Y124986D01*
X279744Y124809D01*
X279774Y124602D01*
X279803Y124365D01*
X279833Y124069D01*
X279892Y123714D01*
X279922Y123358D01*
X279951Y122914D01*
X279981Y122470D01*
X280010Y121938D01*
Y121405D01*
X280040Y120783D01*
Y120132D01*
Y120102D01*
Y119984D01*
Y119777D01*
Y119540D01*
Y119244D01*
X280010Y118918D01*
Y118534D01*
X279981Y118149D01*
X279951Y117320D01*
X279892Y116491D01*
X279862Y116106D01*
X279803Y115751D01*
X279744Y115426D01*
X279685Y115130D01*
X279655Y115070D01*
X279626Y114922D01*
X279537Y114686D01*
X279448Y114419D01*
X279300Y114123D01*
X279152Y113827D01*
X278974Y113561D01*
X278797Y113354D01*
X278767Y113324D01*
X278708Y113294D01*
X278590Y113206D01*
X278442Y113146D01*
X278264Y113058D01*
X278057Y112969D01*
X277820Y112939D01*
X277554Y112910D01*
X277435D01*
X277287Y112939D01*
X277139Y112969D01*
X276932Y113028D01*
X276725Y113087D01*
X276518Y113206D01*
X276310Y113354D01*
X276281Y113383D01*
X276222Y113442D01*
X276103Y113561D01*
X275985Y113738D01*
X275866Y113946D01*
X275718Y114242D01*
X275570Y114567D01*
X275452Y114982D01*
Y115011D01*
X275422Y115041D01*
Y115159D01*
X275393Y115278D01*
X275363Y115455D01*
X275334Y115662D01*
X275274Y115899D01*
X275245Y116195D01*
X275215Y116521D01*
X275156Y116906D01*
X275126Y117320D01*
X275097Y117794D01*
X275067Y118297D01*
Y118859D01*
X275038Y119481D01*
Y120132D01*
Y120162D01*
Y120280D01*
Y120487D01*
Y120724D01*
Y121020D01*
X275067Y121346D01*
Y121730D01*
X275097Y122115D01*
X275126Y122944D01*
X275186Y123743D01*
X275245Y124128D01*
X275304Y124513D01*
X275363Y124838D01*
X275422Y125105D01*
Y125134D01*
X275452Y125164D01*
X275482Y125312D01*
X275570Y125549D01*
X275659Y125845D01*
X275807Y126141D01*
X275955Y126437D01*
X276133Y126703D01*
X276310Y126910D01*
X276340Y126940D01*
X276399Y126999D01*
X276518Y127058D01*
X276666Y127147D01*
X276843Y127236D01*
X277050Y127325D01*
X277287Y127354D01*
X277554Y127384D01*
X277672D01*
X277820Y127354D01*
D02*
G37*
G36*
X204590D02*
X204738Y127325D01*
X204945Y127266D01*
X205152Y127177D01*
X205389Y127058D01*
X205596Y126910D01*
X205626Y126881D01*
X205685Y126822D01*
X205774Y126703D01*
X205892Y126555D01*
X206040Y126318D01*
X206158Y126052D01*
X206306Y125697D01*
X206425Y125282D01*
Y125253D01*
X206454Y125223D01*
Y125105D01*
X206484Y124986D01*
X206514Y124809D01*
X206543Y124602D01*
X206573Y124365D01*
X206602Y124069D01*
X206662Y123714D01*
X206691Y123358D01*
X206721Y122914D01*
X206750Y122470D01*
X206780Y121938D01*
Y121405D01*
X206810Y120783D01*
Y120132D01*
Y120102D01*
Y119984D01*
Y119777D01*
Y119540D01*
Y119244D01*
X206780Y118918D01*
Y118534D01*
X206750Y118149D01*
X206721Y117320D01*
X206662Y116491D01*
X206632Y116106D01*
X206573Y115751D01*
X206514Y115426D01*
X206454Y115130D01*
X206425Y115070D01*
X206395Y114922D01*
X206306Y114686D01*
X206218Y114419D01*
X206070Y114123D01*
X205922Y113827D01*
X205744Y113561D01*
X205566Y113354D01*
X205537Y113324D01*
X205478Y113294D01*
X205359Y113206D01*
X205211Y113146D01*
X205034Y113058D01*
X204826Y112969D01*
X204590Y112939D01*
X204323Y112910D01*
X204205D01*
X204057Y112939D01*
X203909Y112969D01*
X203702Y113028D01*
X203494Y113087D01*
X203287Y113206D01*
X203080Y113354D01*
X203050Y113383D01*
X202991Y113442D01*
X202873Y113561D01*
X202754Y113738D01*
X202636Y113946D01*
X202488Y114242D01*
X202340Y114567D01*
X202222Y114982D01*
Y115011D01*
X202192Y115041D01*
Y115159D01*
X202162Y115278D01*
X202133Y115455D01*
X202103Y115662D01*
X202044Y115899D01*
X202014Y116195D01*
X201985Y116521D01*
X201926Y116906D01*
X201896Y117320D01*
X201866Y117794D01*
X201837Y118297D01*
Y118859D01*
X201807Y119481D01*
Y120132D01*
Y120162D01*
Y120280D01*
Y120487D01*
Y120724D01*
Y121020D01*
X201837Y121346D01*
Y121730D01*
X201866Y122115D01*
X201896Y122944D01*
X201955Y123743D01*
X202014Y124128D01*
X202074Y124513D01*
X202133Y124838D01*
X202192Y125105D01*
Y125134D01*
X202222Y125164D01*
X202251Y125312D01*
X202340Y125549D01*
X202429Y125845D01*
X202577Y126141D01*
X202725Y126437D01*
X202902Y126703D01*
X203080Y126910D01*
X203110Y126940D01*
X203169Y126999D01*
X203287Y127058D01*
X203435Y127147D01*
X203613Y127236D01*
X203820Y127325D01*
X204057Y127354D01*
X204323Y127384D01*
X204442D01*
X204590Y127354D01*
D02*
G37*
%LPC*%
G36*
X559483Y930884D02*
X539000D01*
Y914604D01*
X559483D01*
Y918600D01*
X545690Y927066D01*
X559483D01*
Y930884D01*
D02*
G37*
G36*
Y910638D02*
X539000D01*
Y906494D01*
X559483D01*
Y910638D01*
D02*
G37*
G36*
X556227Y903326D02*
D01*
Y897939D01*
X550929D01*
Y903326D01*
X541960D01*
X547258D01*
Y897939D01*
X541960D01*
Y894358D01*
X547258D01*
Y889000D01*
X556227D01*
Y903326D01*
D02*
G37*
%LPD*%
G36*
X552498Y918422D02*
X539000D01*
Y926740D01*
X552498Y918422D01*
D02*
G37*
G36*
X556227Y889000D02*
X550929D01*
Y894358D01*
X556227D01*
Y889000D01*
D02*
G37*
%LPC*%
G36*
X467772Y527734D02*
X463036D01*
X462770Y527704D01*
X462119D01*
X461852Y527675D01*
X461675D01*
X461586Y527645D01*
X461556D01*
X461201Y527556D01*
X460876Y527438D01*
X460609Y527320D01*
X460402Y527172D01*
X460224Y527024D01*
X460076Y526935D01*
X460017Y526846D01*
X459988Y526816D01*
X459810Y526580D01*
X459662Y526284D01*
X459573Y526017D01*
X459484Y525751D01*
X459455Y525514D01*
X459425Y525336D01*
Y525218D01*
Y525159D01*
X459455Y524833D01*
X459484Y524537D01*
X459573Y524271D01*
X459632Y524034D01*
X459721Y523856D01*
X459810Y523738D01*
X459840Y523649D01*
X459869Y523620D01*
X460047Y523412D01*
X460224Y523235D01*
X460609Y522968D01*
X460757Y522880D01*
X460905Y522820D01*
X460994Y522761D01*
X461024D01*
X461172Y522732D01*
X461408Y522672D01*
X461645Y522643D01*
X461912Y522613D01*
X462533Y522584D01*
X463155Y522554D01*
X463747Y522524D01*
X467772D01*
Y527734D01*
D02*
G37*
G36*
X444418Y525307D02*
Y518262D01*
X449184D01*
X444418Y525307D01*
D02*
G37*
G36*
X467476Y741912D02*
X462740D01*
X462474Y741882D01*
X461823D01*
X461556Y741852D01*
X461379D01*
X461290Y741823D01*
X461260D01*
X460905Y741734D01*
X460580Y741616D01*
X460313Y741497D01*
X460106Y741349D01*
X459928Y741201D01*
X459780Y741112D01*
X459721Y741024D01*
X459692Y740994D01*
X459514Y740757D01*
X459366Y740461D01*
X459277Y740195D01*
X459188Y739928D01*
X459159Y739692D01*
X459129Y739514D01*
Y739396D01*
Y739336D01*
X459159Y739011D01*
X459188Y738715D01*
X459277Y738448D01*
X459336Y738212D01*
X459425Y738034D01*
X459514Y737916D01*
X459544Y737827D01*
X459573Y737797D01*
X459751Y737590D01*
X459928Y737412D01*
X460313Y737146D01*
X460461Y737057D01*
X460609Y736998D01*
X460698Y736939D01*
X460728D01*
X460876Y736909D01*
X461112Y736850D01*
X461349Y736820D01*
X461616Y736791D01*
X462237Y736761D01*
X462859Y736732D01*
X463451Y736702D01*
X467476D01*
Y741912D01*
D02*
G37*
G36*
X467373Y771719D02*
X462637D01*
X462370Y771690D01*
X461719D01*
X461453Y771660D01*
X461275D01*
X461186Y771630D01*
X461157D01*
X460802Y771542D01*
X460476Y771423D01*
X460210Y771305D01*
X460002Y771157D01*
X459825Y771009D01*
X459677Y770920D01*
X459618Y770831D01*
X459588Y770802D01*
X459410Y770565D01*
X459262Y770269D01*
X459174Y770002D01*
X459085Y769736D01*
X459055Y769499D01*
X459026Y769322D01*
Y769203D01*
Y769144D01*
X459055Y768818D01*
X459085Y768522D01*
X459174Y768256D01*
X459233Y768019D01*
X459322Y767842D01*
X459410Y767723D01*
X459440Y767634D01*
X459470Y767605D01*
X459647Y767398D01*
X459825Y767220D01*
X460210Y766954D01*
X460358Y766865D01*
X460506Y766806D01*
X460594Y766746D01*
X460624D01*
X460772Y766717D01*
X461009Y766658D01*
X461246Y766628D01*
X461512Y766598D01*
X462134Y766569D01*
X462755Y766539D01*
X463347Y766510D01*
X467373D01*
Y771719D01*
D02*
G37*
G36*
X395260Y831719D02*
X390524D01*
X390257Y831690D01*
X389606D01*
X389340Y831660D01*
X389162D01*
X389073Y831630D01*
X389044D01*
X388688Y831542D01*
X388363Y831423D01*
X388096Y831305D01*
X387889Y831157D01*
X387712Y831009D01*
X387564Y830920D01*
X387504Y830831D01*
X387475Y830802D01*
X387297Y830565D01*
X387149Y830269D01*
X387060Y830002D01*
X386972Y829736D01*
X386942Y829499D01*
X386912Y829322D01*
Y829203D01*
Y829144D01*
X386942Y828818D01*
X386972Y828522D01*
X387060Y828256D01*
X387120Y828019D01*
X387208Y827842D01*
X387297Y827723D01*
X387327Y827634D01*
X387356Y827605D01*
X387534Y827398D01*
X387712Y827220D01*
X388096Y826954D01*
X388244Y826865D01*
X388392Y826806D01*
X388481Y826746D01*
X388511D01*
X388659Y826717D01*
X388896Y826658D01*
X389132Y826628D01*
X389399Y826598D01*
X390020Y826569D01*
X390642Y826539D01*
X391234Y826510D01*
X395260D01*
Y831719D01*
D02*
G37*
G36*
X289048Y424336D02*
Y417292D01*
X293814D01*
X289048Y424336D01*
D02*
G37*
%LPD*%
D24*
X564500Y718131D02*
Y786500D01*
X648087D01*
X564500Y353500D02*
Y421868D01*
Y353500D02*
X648087D01*
X765500Y406734D02*
Y733266D01*
X139474Y532000D02*
X228526D01*
X139474Y648000D02*
X228526D01*
X139474Y402000D02*
X228526D01*
X139474Y518000D02*
X228526D01*
D25*
X515000Y562000D02*
Y568000D01*
X485000Y562000D02*
Y568000D01*
X479413Y562032D02*
Y568032D01*
X450000Y562000D02*
Y568000D01*
X478000Y650000D02*
X484000D01*
X478000Y620000D02*
X484000D01*
X478032Y655587D02*
X484032D01*
X478000Y685000D02*
X484000D01*
X477968Y714413D02*
X483968D01*
X478000Y685000D02*
X484000D01*
D26*
X316378Y640118D02*
Y670630D01*
X438425Y641102D02*
Y671614D01*
%TF.MD5,125cf3df4f2f91227a71295a4ddf366c*%
M02*
