%TF.GenerationSoftware,Altium Limited,Altium Designer,25.1.2 (22)*%
G04 Layer_Physical_Order=1*
G04 Layer_Color=255*
%FSLAX26Y26*%
%MOIN*%
%TF.SameCoordinates,E56DD44E-5F37-4ECE-9A2F-9A690C635C7A*%
%TF.FilePolarity,Positive*%
%TF.FileFunction,Copper,L1,Top,Signal*%
%TF.Part,Single*%
G01*
G75*
%TA.AperFunction,SMDPad,CuDef*%
%ADD10R,0.120000X0.100000*%
%ADD11R,0.034000X0.108000*%
%ADD12R,0.136000X0.101000*%
%ADD13R,0.022000X0.057500*%
%ADD14R,0.085000X0.108000*%
%ADD15R,0.114000X0.213000*%
%ADD16R,0.019685X0.019685*%
%ADD17R,0.019685X0.019685*%
%TA.AperFunction,Conductor*%
%ADD18C,0.015000*%
%TA.AperFunction,ViaPad*%
%ADD19C,0.020000*%
G36*
X765000Y825000D02*
X645000D01*
Y546000D01*
X307046D01*
X275023Y513977D01*
Y411250D01*
X199000D01*
Y496750D01*
X67000D01*
Y597750D01*
X218065D01*
X255157Y634842D01*
X295000D01*
Y769766D01*
X295233Y770000D01*
X564071D01*
Y825000D01*
X20000D01*
Y925000D01*
X765000D01*
Y825000D01*
D02*
G37*
G36*
X135000Y395000D02*
X85000D01*
Y480000D01*
X135000D01*
Y395000D01*
D02*
G37*
G36*
X768000Y163500D02*
X649000D01*
Y480000D01*
X670000Y501000D01*
Y784000D01*
X768000D01*
Y163500D01*
D02*
G37*
G36*
X171000Y411250D02*
X205750Y376500D01*
X381000D01*
Y163500D01*
X272000D01*
X219500Y216000D01*
X149000D01*
Y411250D01*
Y468750D01*
X171000D01*
Y411250D01*
D02*
G37*
D10*
X80000Y875000D02*
D03*
X705000D02*
D03*
D11*
X729000Y730000D02*
D03*
X581000D02*
D03*
Y600000D02*
D03*
X729000D02*
D03*
D12*
X135000Y547250D02*
D03*
D13*
X60000Y654500D02*
D03*
X110000D02*
D03*
X160000D02*
D03*
X210000D02*
D03*
Y440000D02*
D03*
X160000D02*
D03*
X110000D02*
D03*
X60000D02*
D03*
D14*
X63000Y270000D02*
D03*
X195000D02*
D03*
D15*
X324000D02*
D03*
X706000D02*
D03*
D16*
X265000Y689000D02*
D03*
Y721000D02*
D03*
Y625000D02*
D03*
Y657000D02*
D03*
D17*
X192000Y745000D02*
D03*
X160000D02*
D03*
X161000Y370000D02*
D03*
X129000D02*
D03*
X92000Y710000D02*
D03*
X60000D02*
D03*
X160000D02*
D03*
X192000D02*
D03*
D18*
X92000D02*
X92910Y710910D01*
Y730595D01*
X132315Y770000D01*
X160000D01*
X265000Y721000D02*
Y765000D01*
X290000Y790000D01*
X540000D01*
X210000Y654500D02*
X212500Y657000D01*
X265000D01*
Y689000D01*
X210000Y654500D02*
X213500Y658000D01*
X192000Y710000D02*
Y745000D01*
X160000Y654500D02*
Y710000D01*
X60000Y654500D02*
Y710000D01*
X80000Y370000D02*
X129000D01*
X60000Y390000D02*
X80000Y370000D01*
X60000Y390000D02*
Y440000D01*
D19*
X445000Y550000D02*
D03*
X520000D02*
D03*
X160000Y770000D02*
D03*
X170000Y510000D02*
D03*
Y535000D02*
D03*
Y560000D02*
D03*
Y585000D02*
D03*
X95000Y435000D02*
D03*
X125000D02*
D03*
X95000Y405000D02*
D03*
X125000D02*
D03*
Y465000D02*
D03*
X95000D02*
D03*
X160000Y745000D02*
D03*
X375000Y575000D02*
D03*
X445000Y670000D02*
D03*
Y635000D02*
D03*
X35000Y298000D02*
D03*
Y268000D02*
D03*
Y240000D02*
D03*
X90000Y268000D02*
D03*
Y240000D02*
D03*
Y298000D02*
D03*
X210000Y453000D02*
D03*
Y425000D02*
D03*
Y483000D02*
D03*
X260000Y588000D02*
D03*
Y560000D02*
D03*
Y618000D02*
D03*
X540000Y790000D02*
D03*
X750000Y650000D02*
D03*
X720000D02*
D03*
X750000Y690000D02*
D03*
X720000D02*
D03*
X690000Y650000D02*
D03*
Y690000D02*
D03*
%TF.MD5,b2bd2ad3438873dc3a22b5aac5d79db0*%
M02*
