%TF.GenerationSoftware,Altium Limited,Altium Designer,25.1.2 (22)*%
G04 Layer_Physical_Order=1*
G04 Layer_Color=255*
%FSLAX26Y26*%
%MOIN*%
%TF.SameCoordinates,739CAF36-1DE6-4AEC-99F4-F472B3E4FDB4*%
%TF.FilePolarity,Positive*%
%TF.FileFunction,Copper,L1,Top,Signal*%
%TF.Part,Single*%
G01*
G75*
%TA.AperFunction,SMDPad,CuDef*%
%ADD10R,0.120000X0.100000*%
%ADD11R,0.034000X0.108000*%
%ADD12R,0.136000X0.101000*%
%ADD13R,0.022000X0.057500*%
%ADD14R,0.085000X0.108000*%
%ADD15R,0.114000X0.213000*%
%ADD16R,0.019685X0.019685*%
%ADD17R,0.019685X0.019685*%
%TA.AperFunction,Conductor*%
%ADD18C,0.015000*%
%TA.AperFunction,ViaPad*%
%ADD19C,0.020000*%
G36*
X765000Y825000D02*
X655315D01*
Y790000D01*
X659804Y784000D01*
Y505223D01*
X641790Y487210D01*
X639580Y483902D01*
X638804Y480000D01*
Y163500D01*
X639000Y162515D01*
Y153500D01*
X648015D01*
X649000Y153304D01*
X768000D01*
X768985Y153500D01*
X773000D01*
X777206Y149242D01*
Y10195D01*
X10195D01*
Y790000D01*
X256927D01*
X259223Y784457D01*
X252383Y777617D01*
X248515Y771828D01*
X247157Y765000D01*
Y740842D01*
X245157D01*
Y701158D01*
Y674843D01*
X231000D01*
Y693250D01*
X211843D01*
Y725158D01*
Y764842D01*
X172157D01*
Y729842D01*
X140157D01*
Y693250D01*
X139000D01*
Y615750D01*
X181000D01*
Y690158D01*
X189000D01*
Y615750D01*
X231000D01*
Y639157D01*
X245157D01*
Y637158D01*
X284842D01*
Y669158D01*
Y701158D01*
Y740842D01*
X282843D01*
Y757609D01*
X297391Y772157D01*
X530814D01*
X536022Y770000D01*
X543978D01*
X551329Y773045D01*
X556955Y778671D01*
X560000Y786022D01*
Y825000D01*
X20000D01*
Y925000D01*
X765000D01*
Y825000D01*
D02*
G37*
G36*
X768000Y163500D02*
X649000D01*
Y480000D01*
X670000Y501000D01*
Y784000D01*
X768000D01*
Y163500D01*
D02*
G37*
%LPC*%
G36*
X131000Y693250D02*
X89000D01*
Y615750D01*
X131000D01*
Y693250D01*
D02*
G37*
G36*
X79843Y729842D02*
X40157D01*
Y693250D01*
X39000D01*
Y615750D01*
X81000D01*
Y693250D01*
X79843D01*
Y729842D01*
D02*
G37*
G36*
X135000Y490196D02*
X85000D01*
X81098Y489420D01*
X77790Y487210D01*
X75580Y483902D01*
X74804Y480000D01*
Y478750D01*
X39000D01*
Y401250D01*
X42157D01*
Y390000D01*
X43515Y383172D01*
X47383Y377383D01*
X67383Y357384D01*
X67383Y357383D01*
X73172Y353515D01*
X80000Y352157D01*
X80001Y352157D01*
X109157D01*
Y350158D01*
X138804D01*
Y216000D01*
X139580Y212098D01*
X141790Y208790D01*
X142500Y208316D01*
Y206000D01*
X148015D01*
X149000Y205804D01*
X215277D01*
X257000Y164081D01*
Y153500D01*
X271015D01*
X272000Y153304D01*
X381000D01*
X381985Y153500D01*
X391000D01*
Y162515D01*
X391196Y163500D01*
Y376500D01*
X391000Y377485D01*
Y386500D01*
X381985D01*
X381000Y386696D01*
X209973D01*
X181196Y415473D01*
Y468750D01*
X181000Y469735D01*
Y478750D01*
X171985D01*
X171000Y478946D01*
X149000D01*
X144576Y483119D01*
X144420Y483902D01*
X142210Y487210D01*
X138902Y489420D01*
X135000Y490196D01*
D02*
G37*
%LPD*%
G36*
Y395000D02*
X85000D01*
Y480000D01*
X135000D01*
Y395000D01*
D02*
G37*
G36*
X171000Y411250D02*
X205750Y376500D01*
X381000D01*
Y163500D01*
X272000D01*
X219500Y216000D01*
X149000D01*
Y411250D01*
Y468750D01*
X171000D01*
Y411250D01*
D02*
G37*
D10*
X80000Y875000D02*
D03*
X705000D02*
D03*
D11*
X729000Y730000D02*
D03*
X581000D02*
D03*
Y600000D02*
D03*
X729000D02*
D03*
D12*
X135000Y547250D02*
D03*
D13*
X60000Y654500D02*
D03*
X110000D02*
D03*
X160000D02*
D03*
X210000D02*
D03*
Y440000D02*
D03*
X160000D02*
D03*
X110000D02*
D03*
X60000D02*
D03*
D14*
X63000Y270000D02*
D03*
X195000D02*
D03*
D15*
X324000D02*
D03*
X706000D02*
D03*
D16*
X265000Y689000D02*
D03*
Y721000D02*
D03*
Y625000D02*
D03*
Y657000D02*
D03*
D17*
X192000Y745000D02*
D03*
X160000D02*
D03*
X161000Y370000D02*
D03*
X129000D02*
D03*
X92000Y710000D02*
D03*
X60000D02*
D03*
X160000D02*
D03*
X192000D02*
D03*
D18*
X265000Y721000D02*
Y765000D01*
X290000Y790000D01*
X540000D01*
X210000Y654500D02*
X212500Y657000D01*
X265000D01*
Y689000D01*
X210000Y654500D02*
X213500Y658000D01*
X192000Y710000D02*
Y745000D01*
X160000Y654500D02*
Y710000D01*
X60000Y654500D02*
Y710000D01*
X80000Y370000D02*
X129000D01*
X60000Y390000D02*
X80000Y370000D01*
X60000Y390000D02*
Y440000D01*
D19*
X592000Y475000D02*
D03*
X562000D02*
D03*
X620000D02*
D03*
X592000Y425000D02*
D03*
X562000D02*
D03*
X620000D02*
D03*
X640000Y750000D02*
D03*
Y780000D02*
D03*
X490000Y760000D02*
D03*
X445000Y550000D02*
D03*
X520000D02*
D03*
X160000Y770000D02*
D03*
X170000Y510000D02*
D03*
Y535000D02*
D03*
Y560000D02*
D03*
Y585000D02*
D03*
X95000Y435000D02*
D03*
X125000D02*
D03*
X95000Y405000D02*
D03*
X125000D02*
D03*
Y465000D02*
D03*
X95000D02*
D03*
X160000Y745000D02*
D03*
X375000Y575000D02*
D03*
X445000Y670000D02*
D03*
Y635000D02*
D03*
X35000Y298000D02*
D03*
Y268000D02*
D03*
Y240000D02*
D03*
X90000Y268000D02*
D03*
Y240000D02*
D03*
Y298000D02*
D03*
X210000Y453000D02*
D03*
Y425000D02*
D03*
Y483000D02*
D03*
X260000Y588000D02*
D03*
Y560000D02*
D03*
Y618000D02*
D03*
X540000Y790000D02*
D03*
X750000Y650000D02*
D03*
X720000D02*
D03*
X750000Y690000D02*
D03*
X720000D02*
D03*
X690000Y650000D02*
D03*
Y690000D02*
D03*
%TF.MD5,c7806457eaa96cc940c4667c8bfcdab6*%
M02*
