%TF.GenerationSoftware,Altium Limited,Altium Designer,25.1.2 (22)*%
G04 Layer_Color=0*
%FSLAX26Y26*%
%MOIN*%
%TF.SameCoordinates,739CAF36-1DE6-4AEC-99F4-F472B3E4FDB4*%
%TF.FilePolarity,Positive*%
%TF.FileFunction,Plated,1,2,PTH,Drill*%
%TF.Part,Single*%
G01*
G75*
%TA.AperFunction,ViaDrill,NotFilled*%
%ADD33C,0.008000*%
D33*
X592000Y475000D02*
D03*
X562000D02*
D03*
X620000D02*
D03*
X592000Y425000D02*
D03*
X562000D02*
D03*
X620000D02*
D03*
X640000Y750000D02*
D03*
Y780000D02*
D03*
X490000Y760000D02*
D03*
X445000Y550000D02*
D03*
X520000D02*
D03*
X160000Y770000D02*
D03*
X170000Y510000D02*
D03*
Y535000D02*
D03*
Y560000D02*
D03*
Y585000D02*
D03*
X95000Y435000D02*
D03*
X125000D02*
D03*
X95000Y405000D02*
D03*
X125000D02*
D03*
Y465000D02*
D03*
X95000D02*
D03*
X160000Y745000D02*
D03*
X375000Y575000D02*
D03*
X445000Y670000D02*
D03*
Y635000D02*
D03*
X35000Y298000D02*
D03*
Y268000D02*
D03*
Y240000D02*
D03*
X90000Y268000D02*
D03*
Y240000D02*
D03*
Y298000D02*
D03*
X210000Y453000D02*
D03*
Y425000D02*
D03*
Y483000D02*
D03*
X260000Y588000D02*
D03*
Y560000D02*
D03*
Y618000D02*
D03*
X540000Y790000D02*
D03*
X750000Y650000D02*
D03*
X720000D02*
D03*
X750000Y690000D02*
D03*
X720000D02*
D03*
X690000Y650000D02*
D03*
Y690000D02*
D03*
%TF.MD5,2acf9db8064409e56318c0c3eb1cf491*%
M02*
