%TF.GenerationSoftware,Altium Limited,Altium Designer,25.1.2 (22)*%
G04 Layer_Color=8388736*
%FSLAX26Y26*%
%MOIN*%
%TF.SameCoordinates,739CAF36-1DE6-4AEC-99F4-F472B3E4FDB4*%
%TF.FilePolarity,Negative*%
%TF.FileFunction,Soldermask,Top*%
%TF.Part,Single*%
G01*
G75*
%TA.AperFunction,SMDPad,CuDef*%
%ADD11R,0.034000X0.108000*%
%ADD12R,0.136000X0.101000*%
%ADD13R,0.022000X0.057500*%
%ADD14R,0.085000X0.108000*%
%ADD15R,0.114000X0.213000*%
%ADD27R,0.128000X0.108000*%
%ADD28R,0.023685X0.023685*%
%ADD29R,0.023685X0.023685*%
D11*
X729000Y730000D02*
D03*
X581000D02*
D03*
Y600000D02*
D03*
X729000D02*
D03*
D12*
X135000Y547250D02*
D03*
D13*
X60000Y654500D02*
D03*
X110000D02*
D03*
X160000D02*
D03*
X210000D02*
D03*
Y440000D02*
D03*
X160000D02*
D03*
X110000D02*
D03*
X60000D02*
D03*
D14*
X63000Y270000D02*
D03*
X195000D02*
D03*
D15*
X324000D02*
D03*
X706000D02*
D03*
D27*
X80000Y875000D02*
D03*
X705000D02*
D03*
D28*
X265000Y689000D02*
D03*
Y721000D02*
D03*
Y625000D02*
D03*
Y657000D02*
D03*
D29*
X192000Y745000D02*
D03*
X160000D02*
D03*
X161000Y370000D02*
D03*
X129000D02*
D03*
X92000Y710000D02*
D03*
X60000D02*
D03*
X160000D02*
D03*
X192000D02*
D03*
%TF.MD5,605839415cf4b80a9dfa4579211af7fe*%
M02*
