M48
;Layer_Color=9474304
;FILE_FORMAT=4:2
METRIC,LZ
;TYPE=PLATED
T01F00S00C0.20
%
T01
X000089Y00061
Y000681
Y000757
X000229
Y000681
Y00061
X000241Y001029
Y001105
X000317
Y001029
Y001181
X000241
X000432Y001295
Y001359
Y001422
X00066
X000533Y001227
Y001151
Y00108
X001427
Y001206
X001321Y001397
X00113
X001504Y001206
X001575
Y00108
X001504
X001753Y001651
X001829
X001905
Y001753
X001829
X001753
X001626Y001905
Y001981
X001372Y002007
X001245Y00193
X00113Y001702
Y001613
X000952Y00146
X00066Y001494
Y00157
X000432Y001486
X000406Y001892
X000483Y001968
M30
